<svg width="32" height="32" viewBox="0 0 32 32" fill="none" xmlns="http://www.w3.org/2000/svg">
<path d="M28 15V27C28 27.2652 27.8946 27.5196 27.7071 27.7071C27.5196 27.8947 27.2652 28 27 28H5C4.73478 28 4.48043 27.8947 4.29289 27.7071C4.10535 27.5196 4 27.2652 4 27V15C3.99906 14.7371 4.05041 14.4766 4.15105 14.2337C4.2517 13.9907 4.39963 13.7703 4.58625 13.585L14.5862 3.58502C14.9613 3.21023 15.4698 2.99969 16 2.99969C16.5302 2.99969 17.0387 3.21023 17.4137 3.58502L27.4137 13.585C27.6004 13.7703 27.7483 13.9907 27.8489 14.2337C27.9496 14.4766 28.0009 14.7371 28 15Z" fill="black"/>
</svg>
