<svg width="33" height="23" viewBox="0 0 33 23" fill="none" xmlns="http://www.w3.org/2000/svg">
<g opacity="0.85">
<g clip-path="url(#clip0_184_2361)">
<path d="M6.18597 11.7146C4.9994 10.9924 2.04628 9.1965 0.758406 8.47183C0.507572 8.33069 0.396325 8.24539 0.390877 8.15183C0.349154 7.43565 3.80781 7.04247 5.87824 6.65288C6.28151 6.57699 6.80223 6.51174 8.47833 6.20225C10.1544 5.89276 12.9722 5.35357 14.965 4.94149C18.049 4.30375 19.399 3.94839 20.3799 3.71775C23.8603 2.89949 24.5391 2.47499 25.8173 2.12941C28.2659 1.46742 30.0607 1.01264 31.2107 0.612554C31.7282 0.432488 32.1369 0.384201 32.2963 0.404926C32.7856 0.468533 30.8882 1.8042 29.777 2.97144C29.4293 3.33671 29.1431 3.62817 28.5417 4.34829C27.2481 5.89724 25.9368 7.70083 25.0968 8.97614C24.603 9.72588 24.3139 10.1382 23.754 10.9558C22.5527 12.7097 21.3708 14.3942 20.8479 15.3866C20.2893 16.4466 19.6338 17.2997 18.972 17.7099C18.4156 18.0548 17.7425 18.7159 16.3654 20.197C15.7173 20.894 15.055 21.5541 14.538 22.1619C14.426 22.2935 14.351 22.4083 14.2795 22.3952C13.8068 22.3088 13.7019 21.2637 13.3378 20.6182C13.0448 20.0988 12.6676 19.636 12.2914 19.176C11.9079 18.7072 11.4587 18.3389 11.0232 17.9487C10.5787 17.5507 10.3506 16.974 10.0018 16.3889C9.84602 16.1275 9.70905 15.8793 9.63744 15.6303C9.16319 13.9812 13.6202 12.5786 14.4382 12.0142C15.8009 11.074 17.0756 10.172 19.8443 8.33782C22.6048 6.50904 24.4292 5.33459 24.9274 4.98696C26.5524 3.85315 27.6674 3.34657 28.3665 2.9447C29.1605 2.48834 30.194 1.88502 30.8173 1.56014C31.1013 1.4121 31.3538 1.22526 31.4603 1.12331C31.8103 0.788165 30.3284 1.56708 29.7893 1.78491C29.2591 1.9992 28.6764 2.2847 28.0138 2.55001C27.4244 2.78598 26.8734 2.99695 26.2521 3.29927C25.6356 3.59929 25.0789 3.784 24.1422 4.18435C22.1635 5.03007 20.4025 5.9105 18.617 6.76985C17.0804 7.50937 14.7929 8.61641 13.122 9.25233C12.2929 9.56793 11.1988 10.1849 10.0323 10.6945C9.11243 11.0965 8.60585 11.2939 8.07819 11.448C7.55149 11.6018 7.03826 11.7866 6.58791 12.0569C6.13204 12.3304 6.58153 13.153 6.80769 13.671C7.03247 14.1859 7.00858 14.7789 7.06899 15.4781C7.12123 16.0827 7.25348 16.7151 7.32826 17.3841C7.56242 19.4789 7.40285 21.911 7.43772 21.6132C7.52763 20.8455 7.93529 20.1937 8.43491 19.2766C8.79023 18.6243 9.19177 17.9685 9.49547 17.2554C9.62518 16.951 9.70951 16.6681 9.78917 16.5344C10.005 16.1721 9.63072 17.5006 9.3902 18.0136C9.12977 18.5692 8.67012 19.5211 8.35643 20.269C8.14473 20.7737 7.97574 21.2995 7.82612 21.829C7.7886 21.9618 7.71551 22.083 7.74215 22.0989C8.18588 22.3631 8.97155 20.9485 9.63119 20.3529C10.2861 19.7617 10.8318 19.4859 11.3989 19.1258C11.5418 19.035 11.6788 18.9553 11.7543 18.846C11.8299 18.7366 11.8409 18.6021 11.8033 18.4808C11.6455 17.9716 11.1392 17.6426 10.7224 17.2839C10.2685 16.8933 10.0416 16.3157 9.82954 15.7466C9.57715 15.0692 9.39442 14.6158 9.26244 14.5133C8.8944 14.2275 9.0423 16.6987 8.94063 17.8186C8.92564 17.9835 8.81725 16.4013 8.8067 15.0227C8.80405 14.6703 8.58313 16.9135 8.29693 18.2235C8.22586 18.5488 8.06718 16.4963 8.07538 14.6054C8.07546 14.5943 8.10209 16.5274 8.04946 17.1324C7.89695 18.8856 7.79134 13.5227 7.89312 12.7976C7.99612 12.064 9.15124 11.8247 10.8062 11.3012C11.3915 11.116 12.0198 10.6978 12.2886 10.5347C13.4443 9.8337 8.24461 12.9181 7.76752 13.4349C7.67107 13.5394 7.63268 13.6752 7.71016 13.7073C7.78765 13.7394 8.0037 13.6809 9.19802 12.8621C10.3923 12.0432 12.5585 10.4657 13.9327 9.49544C15.8011 8.17602 16.9482 7.59172 18.381 6.8206C20.3342 5.76946 21.5258 4.97491 21.6638 4.95355C21.8168 4.92984 21.1783 5.4003 20.5521 6.04446C19.6652 6.95676 17.8616 8.18627 15.8736 9.51274C14.6907 10.302 13.6433 10.8529 12.8353 11.4158C12.6111 11.572 12.7804 11.4898 14.2988 10.5674C15.8172 9.64506 18.684 7.89116 20.2745 6.9325C22.5627 5.55339 23.7029 5.09979 24.2959 4.80915C25.536 4.20125 20.5071 6.83964 19.4554 7.56846C17.7315 8.763 16.3297 9.48182 14.2773 10.6762C13.0792 11.3735 11.6109 12.3404 10.922 12.7576C10.233 13.1749 10.3802 13.0349 11.9895 12.1082C13.5988 11.1815 16.6659 9.47221 18.1832 8.61032C19.7004 7.74835 19.5748 7.78551 19.4268 7.8584C19.1019 8.01838 17.54 9.18833 15.297 10.8245C13.8611 11.8719 12.215 12.5784 11.1977 12.9253C11.1007 12.9583 11.0649 12.7387 11.2211 12.4766C12.2441 10.7605 14.0111 10.011 14.5054 9.6542C14.6384 9.55823 14.4641 9.55159 14.2415 9.69849C13.1796 10.3993 11.2952 12.5295 10.0351 13.6577C9.92622 13.7551 9.7876 13.7776 9.72092 13.7202C9.65423 13.6628 9.64774 13.5023 9.69405 13.3712C9.78448 13.1149 10.057 12.9379 10.1564 12.7922C10.5163 12.2642 8.96484 14.1872 8.65903 14.8565C8.56376 15.065 8.62147 15.4029 8.68067 15.2731C8.98709 14.6014 9.027 13.8116 9.01825 13.5763C8.99779 13.0261 8.19557 13.0098 7.85743 12.906C7.70387 12.8588 7.56846 12.904 7.49402 13.2966C7.27893 14.4312 7.43439 15.5897 7.50377 15.9335C7.7071 16.9411 7.35158 14.0814 7.29789 13.3095C7.28567 13.134 7.25847 12.9843 7.25423 12.9857C6.13792 13.3468 8.32121 16.8621 8.54073 18.2417C8.57946 18.4856 8.57829 18.6619 8.59523 18.8223C8.68496 19.6717 8.86488 14.4317 9.09814 13.2088C9.14187 12.9797 9.19404 12.7968 9.20317 12.7672C9.32031 12.3901 8.96507 13.8862 8.77906 15.2517C8.58258 16.6941 8.07601 17.4014 7.83978 18.0745C7.58661 18.7958 7.92826 15.4967 9.06073 13.1073C9.83024 11.4835 12.6158 9.87335 13.942 9.03494C15.0431 8.33894 16.5409 7.70682 17.4256 7.36623C18.4071 6.98835 19.2247 6.76739 20.7461 6.13823C21.6619 5.75953 22.5946 5.21839 24.3326 4.08317C25.1858 3.52587 26.138 3.10299 26.7231 2.89513C26.9967 2.79795 27.3 2.78275 27.4666 2.79021C27.9323 2.81106 25.8458 3.77722 24.7903 4.3892C24.0915 4.79431 23.4637 5.26045 22.546 5.70911C21.4257 6.25686 20.2499 6.901 19.4307 7.29094C18.4902 7.73853 17.8239 7.90714 16.9309 8.2413C16.3529 8.45757 15.8819 8.802 15.3557 9.11039C15.0366 9.29743 14.636 9.4537 13.7593 9.8969C11.9482 10.8127 9.70811 11.8445 8.02634 12.7595C7.36078 13.1215 7.06117 13.2456 6.95003 13.3652C6.61216 13.7289 7.52662 14.3691 7.87937 15.0962C8.11419 15.7992 8.2236 16.3419 8.33558 16.8926C8.37096 17.0408 8.41313 17.2026 8.48684 17.542" stroke="#F5F5F5" stroke-width="0.790894" stroke-linecap="round"/>
</g>
</g>
<defs>
<clipPath id="clip0_184_2361">
<rect width="32.7656" height="22.7969" fill="white"/>
</clipPath>
</defs>
</svg>
