<svg width="56" height="77" viewBox="0 0 56 77" fill="none" xmlns="http://www.w3.org/2000/svg">
<path d="M5.93495 11.9203C5.93495 14.4652 5.98451 20.6339 6.1804 22.3929C6.32997 23.7361 6.53463 24.8804 6.69122 26.2327C6.92731 28.2714 6.93051 30.225 7.11651 31.6178C7.28964 32.9143 7.41096 34.0074 7.56822 35.3381C7.85603 37.7735 7.34128 39.2888 6.13292 43.0099C4.81057 47.0821 4.03105 51.4202 3.61086 53.361C3.28462 54.8679 3.16319 60.3435 2.97479 63.8863C2.8508 66.2179 2.15427 67.6156 1.83321 68.9781C1.5036 70.3769 1.27791 71.2761 1.30698 71.6686C1.38708 72.75 3.4343 71.4126 4.61328 71.1317C5.86629 70.8332 6.89109 70.5326 14.8769 70.4372C17.5555 70.4052 21.9461 70.9932 25.2958 71.2347C26.6401 71.3315 28.3644 71.5104 29.8358 71.0934C30.2799 70.9675 28.6559 70.839 28.1404 70.5356C27.8943 70.3908 27.6605 70.3066 28.0996 70.2579C29.6459 70.0863 31.0525 70.2375 32.7775 70.2805C40.2064 70.4654 41.9381 70.9069 43.2705 71.4904C43.5752 71.6238 43.8436 71.7319 44.0972 71.7295C44.3508 71.727 44.5812 71.6119 44.7486 71.4119C45.4497 70.5745 45.9245 69.5671 46.8255 69.1401C47.8689 68.6457 50.2124 70.7299 51.857 71.4857C52.0966 71.5958 52.3662 71.5061 52.5002 71.1858C52.8697 70.3031 52.6327 65.2631 52.5671 58.612C52.5336 55.2218 52.0548 52.2289 52.2295 50.1244C52.4376 47.6173 52.4454 43.7244 52.1488 42.0026C51.8872 40.4838 51.7056 39.2819 51.5203 38.1224C51.3429 37.0128 51.1128 35.9027 50.8397 34.7702C50.5296 33.4843 50.4937 31.709 50.4039 30.1418C50.2865 28.0927 50.7081 26.9823 51.2406 25.9093C52.0681 24.2422 53.6369 22.0726 54.2806 20.6403C55.589 17.7286 54.626 11.8326 54.7216 10.1556C54.7924 8.91162 55.0094 4.79159 54.5647 2.21785C54.4982 1.8335 54.4691 1.28107 54.2354 0.985781C53.2594 -0.247538 51.2631 1.21427 49.7309 1.56922C48.3589 1.88706 47.3149 2.1314 45.6401 2.28134C43.3335 2.48784 40.4456 2.39393 35.8898 2.4452C32.7205 2.48086 27.8103 2.48619 22.8443 2.43331C17.8783 2.38044 13.0053 2.25643 10.4095 2.29583C7.63427 2.33795 6.84684 2.77586 5.88162 2.94536C5.51606 3.00956 5.48415 3.36819 5.46684 3.67704C5.39628 4.93603 5.60835 8.99637 6.20563 11.0931C6.33977 11.564 6.87733 10.3239 7.05422 9.53744C7.57221 7.23434 6.64745 4.92042 5.97311 2.54645C5.76466 1.81261 5.64158 2.10874 5.60197 3.11438C5.41156 7.94899 5.91504 9.21552 6.04217 12.3451C6.06522 12.9125 6.41184 8.43501 6.35763 6.09804C6.33367 5.06529 6.35404 12.9601 6.28942 14.9932C6.26345 15.8102 6.03977 11.9778 6.04518 6.54923C6.04611 5.61674 6.14192 5.92072 6.17515 6.37138C6.25157 7.40805 6.23569 8.31058 6.27709 10.8316C6.38188 17.2128 6.38584 22.1943 6.54232 23.394C6.73211 24.849 6.85403 26.4495 7.06009 27.7631C7.24363 28.9332 7.3314 30.1568 7.47545 30.859C7.85783 32.723 7.33897 27.3086 7.06898 25.4769C6.58554 22.197 6.66614 19.7418 6.59697 15.3871C6.53586 11.5399 6.65098 6.29445 6.85232 5.66649C7.19338 4.60276 6.86231 11.529 6.63494 11.8784C4.42725 15.2712 6.72119 4.87381 6.35384 3.53204C6.25471 3.16997 5.97538 7.11023 6.36648 13.7778C6.82221 21.547 8.39238 26.1197 8.46314 27.173C8.62687 29.6101 8.60227 31.8814 8.6103 34.9971C8.61137 35.4126 8.40286 35.15 8.3047 34.8705C7.87199 33.6383 7.79069 31.8596 7.68581 29.5223C7.51191 25.647 7.50225 24.1902 7.46277 21.1608C7.42699 18.4149 7.44935 13.2138 7.46206 10.3162C7.47992 6.24429 7.68082 5.09586 7.76471 4.07845C7.78248 3.86289 7.45523 3.76266 7.40349 4.35997C7.35176 4.95728 7.48234 6.27528 7.5496 6.7895C7.61687 7.30372 7.61687 6.97422 7.58876 6.67143C7.56064 6.36865 7.5044 6.10257 7.45717 6.11023C7.18078 6.15505 7.33543 10.1969 7.35814 15.6651C7.371 18.7599 8.24998 22.6099 8.80349 27.7679C9.40298 33.3543 8.31531 35.756 7.9937 37.1758C7.7389 38.3007 7.50317 40.864 7.12513 43.1954C6.88401 44.6823 6.0587 47.6728 5.52188 49.9203C5.16416 51.418 4.74861 52.5395 4.48975 53.7775C4.21566 55.0883 4.14483 56.5444 4.05509 58.9677C3.96235 61.4721 3.6566 65.3737 3.55401 67.8559C3.49698 69.2355 3.3258 70.4644 3.08541 71.3382C2.98209 71.7137 2.65864 66.8458 2.74596 60.5707C2.78332 57.8859 3.02821 56.9733 3.24139 56.3965C4.30694 53.5136 3.34415 65.7377 2.94602 68.3439C2.8049 69.2677 2.53803 70.0809 2.22874 70.5992C1.54673 71.7422 2.67801 64.0387 3.89041 57.6316C4.79702 52.8405 5.36105 50.5786 5.45493 50.3271C5.95517 48.987 4.19191 55.5479 3.7069 57.5862C3.62219 57.9422 3.44254 58.3355 3.32335 58.3904C2.31125 58.8559 3.40457 54.2876 5.4485 47.0609C5.92598 45.3726 6.1664 44.8366 6.32484 44.5876C6.5403 44.2491 5.74518 48.514 4.33699 54.0549C3.72887 56.4477 3.14324 57.9259 2.8463 58.5399C2.54936 59.1538 2.50933 58.8424 2.53414 58.3835C2.55895 57.9245 2.64982 57.3275 3.43116 54.6664C4.21251 52.0052 5.68159 47.298 6.48605 44.675C7.61308 41.0002 7.86016 39.8994 8.06118 38.7029C8.29887 37.2881 8.48177 36.3451 8.69461 35.7083C9.59071 33.0273 15.8568 34.8574 16.8929 34.5957C17.9463 34.3296 19.0801 34.2091 20.1108 33.8959C20.3664 33.8183 20.6198 33.7456 19.9989 33.8136C14.9317 34.3683 11.5315 34.1672 10.2737 33.9854C9.73655 33.9078 9.03837 33.7888 8.43696 33.882C8.18207 33.9215 8.91939 34.4815 9.15418 34.7339C9.23619 34.8221 8.92766 34.9856 8.90828 34.9643C8.73119 34.7694 9.72827 34.5955 10.2014 34.5953C10.54 34.5952 9.23734 34.6614 9.12857 34.7761C9.02925 34.8809 9.76386 34.8505 9.92609 34.9733C10.1807 35.1661 9.29476 35.7539 8.73422 36.2134C7.96053 36.8475 8.31232 38.38 8.52817 39.3438C8.7552 40.3575 7.72249 41.3438 7.25681 42.5028C6.62148 44.084 6.36291 45.2384 6.1235 46.5489C5.75119 48.5868 5.46024 50.21 5.20732 52.0301C4.98242 53.6487 4.72165 54.7679 4.59009 56.1243C4.44964 57.5724 4.03718 59.8649 3.79785 61.6719C3.6245 62.9807 3.59474 64.3383 3.41359 65.6777C3.0306 68.5096 2.2961 71.2035 2.22504 71.8071C2.19739 72.0419 2.53427 72.1028 2.78476 72.0687C3.82953 71.9267 4.78546 71.2045 5.55344 70.9354C5.81518 70.8438 4.6181 70.7277 4.08336 70.6803C3.38546 70.6183 6.0561 70.6168 8.34603 70.6349C8.859 70.6389 9.15575 70.5302 11.9218 70.4928C14.6878 70.4554 19.9131 70.4526 22.7883 70.4651C26.6612 70.482 28.0081 70.7882 31.1441 70.911C33.0507 70.9856 34.2906 71.0258 36.0248 71.0934C40.2518 71.2583 43.5185 71.0317 44.8823 70.8448C48.8562 70.3001 49.7342 70.3441 49.853 70.3404C50.8036 70.3103 46.9514 70.3968 45.2984 70.468C44.8302 70.4882 47.7032 70.2472 49.4095 70.2614C49.6675 70.2636 48.2209 70.3691 46.6932 70.3691C45.6328 70.3691 49.0621 70.7416 50.2243 70.8646C50.7591 70.9213 51.6258 71.1684 52.3569 71.4797C53.6165 72.0162 48.7563 70.5729 47.8786 70.3315C47.8431 70.3217 48.1135 70.5133 48.1218 70.5389C48.1302 70.5644 47.8922 70.4677 47.8932 70.4987C47.9041 70.8356 48.5813 71.0734 48.742 71.3183C48.9137 71.58 47.7552 70.5279 47.1466 69.8809C46.6877 69.393 48.5717 70.8901 49.1178 71.2693C49.241 71.3548 48.5024 70.8281 48.2744 70.5209C48.1028 70.2897 49.0852 70.6974 49.3716 70.8565C49.5946 70.9804 48.3864 70.449 48.0301 70.341C46.9494 70.0136 49.9263 72.0355 49.9955 71.9922C50.2801 71.8138 48.9483 71.0524 48.6919 70.7786C48.6112 70.6925 49.6489 71.2437 50.3719 71.7229C50.5366 71.832 49.7692 71.1301 49.6398 70.943C49.4024 70.5998 50.502 71.5182 50.6515 71.6941C50.9561 72.0524 49.1002 71.0028 47.7411 70.573C47.1883 70.3982 46.9021 70.3563 47.267 70.7652C47.6319 71.1741 48.6537 72.0468 49.1257 72.3658C49.5977 72.6848 49.489 72.4236 49.3451 72.1132C49.2011 71.8028 49.0251 71.451 49.0748 71.3145C49.2004 70.9703 50.1946 71.6687 50.7578 72.1258C52.1162 73.2283 46.9251 71.1862 46.7023 70.9323C46.4636 70.6604 47.9226 71.1167 48.8107 71.6777C49.3837 72.0397 47.9722 70.4171 47.5991 70.0739C47.4144 69.904 47.133 69.9195 46.8894 70.0408C46.3545 70.3071 46.0331 71.0387 45.864 71.4188C45.8413 71.4697 45.9902 71.2498 45.9474 71.0768C45.9045 70.9039 45.6764 70.7891 45.3662 70.891C43.6617 71.4509 42.4662 72.5424 41.4125 72.436C40.8571 72.3799 40.4017 71.7623 40.1145 71.5275C39.8799 71.3358 40.9404 71.6768 41.1772 71.8825C41.2209 71.9206 40.9336 71.92 40.9361 71.8982C40.9692 71.6094 41.7003 71.9683 41.9463 72.1403C41.979 72.1631 41.7101 72.1352 41.7201 72.119C41.7302 72.1029 41.998 72.1199 42.2615 72.1735C43.0601 72.3359 38.0148 71.3655 38.1394 71.1965C38.9547 70.0908 40.859 71.1853 41.4554 71.3372C42.2044 71.5279 37.4031 71.0813 33.9931 70.7176C33.001 70.6118 32.2411 70.4675 31.9078 70.4229C30.5733 70.2446 36.6092 71.6787 39.9008 72.636C41.1 72.9848 42.3408 72.3879 43.6807 72.2753C45.0858 72.1572 45.701 70.5527 46.6594 70.1512C47.8083 69.6699 49.4182 70.3237 50.7461 70.9715C51.2654 71.2248 51.7008 71.4389 52.0874 71.7061C52.281 71.84 52.5776 71.6882 52.8297 71.5184C53.3531 71.166 53.3961 69.0019 53.1539 66.0927C53.0406 64.7325 52.964 61.6806 52.9705 55.9574C52.9812 46.5201 52.728 45.3669 52.5678 44.2226C52.4086 43.0852 52.261 41.9559 52.1887 40.4331C52.1257 39.106 51.6752 37.8187 51.4839 35.95C51.4426 35.5457 51.1653 35.4025 51.0876 35.4594C50.3819 35.9767 51.7334 37.5786 52.1585 38.7083C52.6014 39.8851 52.7712 42.0686 52.556 44.5671C52.4535 45.7567 51.057 45.491 50.8668 45.5525C49.8667 45.876 52.8039 45.3432 53.3071 45.1627C54.2543 44.8229 52.8327 42.6491 52.221 41.1558C51.719 39.9303 51.6634 38.5765 51.4966 37.2773C51.3478 36.1187 51.1118 34.9191 50.8302 33.6121C50.4735 31.9562 50.6376 28.9369 50.5802 26.4095C50.5627 25.6393 50.4965 25.9125 50.4244 26.1811C49.9411 27.983 50.0648 30.7688 49.8967 32.3857C49.8223 33.1021 49.2184 30.7724 49.0841 30.3645C48.9993 30.107 48.9151 31.2188 48.7305 31.7088C48.6435 31.9397 48.3622 31.9979 48.1905 31.9136C47.8078 31.7256 47.6511 31.0624 47.33 30.803C47.1907 30.6905 46.9749 30.959 47.0164 31.1019C47.134 31.5065 48.4 31.4412 49.68 31.3124C50.1847 31.2616 50.3498 30.926 50.4406 30.4046C50.8658 27.9644 51.0709 26.5384 51.6724 25.51C52.2345 24.5489 53.0622 23.7356 53.7817 22.9036C54.4726 22.1049 54.7949 21.3183 54.8374 20.8187C55.0258 18.6049 49.6963 17.7972 48.7963 17.0893C48.1272 16.5631 50.565 17.568 51.5972 17.946C52.5906 18.3099 53.6643 18.3417 54.4496 18.4807C54.7322 18.5308 54.6786 18.8979 54.6638 19.2012C54.6044 20.4246 54.5583 12.9492 54.2811 11.4419C53.9636 9.71492 53.8441 7.99531 53.5694 6.71725C53.3241 5.57603 53.11 4.4444 52.9024 3.31101C52.6962 2.18544 52.2459 1.44476 52.0546 1.21886C51.152 0.152733 52.6597 5.3477 53.085 6.71146C53.2994 7.39907 53.7176 8.02375 54.0145 8.33651C54.672 9.02927 53.6624 5.85374 53.4022 4.38442C53.1934 3.20526 52.8375 2.00724 52.4644 0.916811C52.38 0.670215 52.0932 0.567513 51.8616 0.570745C50.8585 0.584741 50.0527 1.69269 48.5196 2.25617C47.2038 2.73979 45.3622 2.94517 39.871 3.08032C37.6888 3.13403 36.0857 2.8943 33.5476 2.78793C25.1613 2.43644 23.7011 2.54524 22.4717 2.45835C21.126 2.36323 20.1667 2.05412 19.2106 1.6494C18.2578 1.24608 12.3854 1.18782 8.83217 1.31541C8.16797 1.33926 7.55198 1.39732 7.10789 1.60259C6.88823 1.70412 6.77435 1.99423 6.85901 1.98532C7.32341 1.93643 7.79691 1.31037 8.01695 1.16217C8.22329 1.02321 7.2949 1.54213 6.80446 1.95276C5.04976 3.42194 6.20696 9.03607 6.52634 10.5876C6.88971 12.3529 7.76693 15.0045 8.34873 17.0873C8.79103 18.6707 8.67183 20.3105 8.77875 26.0643C8.8177 28.1605 9.11354 29.335 9.48987 30.4154C9.58226 30.6806 9.71054 30.9218 10.2221 31.0638C10.7337 31.2058 11.643 31.2323 11.8353 31.2598C13.0212 31.4294 9.52236 31.4942 8.73485 31.5989C8.54027 31.6248 9.56251 32.033 10.341 32.4059C10.634 32.5462 9.58518 32.9442 9.06645 33.2802C7.65507 34.1942 8.435 38.0389 7.96388 39.4129C7.53985 40.6496 6.86814 41.7087 6.52897 42.8478C6.0816 44.3501 6.08889 45.5504 5.80927 46.6891C5.67469 47.2372 5.46033 47.7644 5.43345 48.3C5.42051 48.5577 5.61657 48.7742 5.80652 48.9322C6.59089 49.5845 7.62282 49.5416 8.13716 49.5416C8.88004 49.5416 6.3372 50.0914 5.15465 50.4972C4.86865 50.5953 4.60861 50.6162 4.55868 50.7424C4.42978 51.0685 8.02435 51.2895 13.6427 51.2766C19.3956 51.2633 19.9668 50.0174 20.9549 49.3377C21.6066 48.8895 22.2648 48.6476 22.4724 48.4529C23.1563 47.8117 20.2852 48.9728 19.2643 49.2442C18.1288 49.546 16.176 49.6653 14.4962 50.0104C13.256 50.2651 8.93091 50.3724 6.32343 49.7201C5.97958 49.634 5.74236 49.1524 5.72582 48.9731C5.52927 46.8418 10.8549 50.4396 11.6452 50.6225C12.4447 50.8075 10.1918 49.2268 9.12497 48.6177C7.75155 47.8335 6.9346 47.647 6.56031 47.5393C6.42999 47.5018 6.46051 47.9202 6.5814 48.1861C7.35676 49.8914 9.30538 50.5285 9.58818 50.772C12.1183 52.951 13.9281 50.6919 15.083 50.5009C16.3969 50.2836 17.4849 49.8815 19.4719 49.7965C20.8012 49.7396 14.1462 50.7245 12.0881 50.9448C9.80853 51.1887 7.88326 51.4334 6.46175 51.7032C6.15123 51.7621 5.84168 51.7728 5.83368 51.7711C5.54483 51.7085 6.68467 51.5927 6.95991 51.3387C7.20486 51.1127 6.36393 50.7274 5.99612 50.6353C5.13343 50.4192 5.50364 52.7209 5.6221 53.9329C6.02348 58.0397 5.74662 65.67 5.64579 67.2513C5.55518 68.6724 5.42654 70.2614 5.2495 72.9602C5.21586 73.4731 4.86062 73.4653 4.60475 73.4453C4.10102 73.4058 3.59517 73.3191 3.33839 73.3135C1.52207 73.2733 7.97602 71.9569 8.30722 71.8136C9.5077 71.2942 5.49391 72.2894 4.34157 72.6504C4.06505 72.737 3.80631 72.7452 3.85107 72.7602C5.9173 73.4511 9.55317 71.8061 11.0558 71.4843C12.8141 71.1077 14.5518 71.2523 15.4022 71.211C15.9786 71.183 13.4204 71.6043 11.8705 71.7837C8.7291 72.1473 7.33947 72.6747 6.78107 72.8786C4.78635 73.6071 15.1648 72.2456 17.5817 72.1548C18.7278 72.1117 19.8293 71.8161 20.8639 71.6925C21.9446 71.5634 23.9146 71.4556 24.5571 71.4263C28.2734 71.2567 15.8497 71.4099 12.7293 71.2633C11.1746 71.1903 10.5211 70.9791 10.2476 70.8386C8.5521 69.9673 15.3764 71.4245 16.3049 71.5668C18.9473 71.972 7.82762 72.113 7.0214 71.7488C6.84423 71.6688 7.82103 71.6651 8.33712 71.682C8.85321 71.6988 9.25002 71.7551 8.52864 71.8013C7.80727 71.8476 5.95567 71.8819 5.13461 71.8293C4.31356 71.7767 4.57917 71.636 4.91885 71.5636C5.25853 71.4911 5.66424 71.4911 5.3009 71.4911C4.93755 71.4911 3.79285 71.4911 3.32277 71.4333C2.8527 71.3756 3.09193 71.2601 3.34734 71.219C3.60275 71.1779 3.86708 71.2148 3.91588 71.3331C4.0458 71.6483 3.38624 71.9698 3.1541 72.2425C2.5054 73.0042 5.40241 73.1123 6.36829 73.5195C6.47018 73.5624 6.12815 73.7787 6.25614 73.8648C6.38413 73.9509 6.90263 73.9799 6.76275 73.9945C6.62287 74.0091 5.80891 74.0084 5.53844 74.0538C5.41422 74.0746 6.7 74.284 7.65438 74.2827C8.12682 74.2821 6.29644 74.3938 6.21581 74.5197C4.38093 77.3844 13.1249 73.3645 14.709 73.1917C18.3309 72.7966 19.5696 72.9627 20.7305 72.836C21.7923 72.7202 25.4832 72.5893 28.0916 72.3163C30.303 72.0848 31.2864 71.8385 32.3132 71.6102C33.9235 71.2523 36.0353 71.579 36.7088 71.9101C37.5726 72.3346 34.5857 71.1519 33.1535 71.1763C30.0626 71.2289 37.3677 72.7247 38.1358 73.6114C39.0099 74.6205 40.8185 73.8393 41.8492 73.494C42.9907 73.1116 43.8585 72.2471 44.5392 71.7537C45.1949 71.2785 42.4437 72.8729 39.2176 73.1626C38.7732 73.2025 39.053 73.0266 39.3202 73.0117C39.5873 72.9969 39.8323 73.0865 39.8191 73.0751C39.5721 72.8606 38.9604 72.662 38.6083 72.5335C38.5318 72.5056 38.68 72.8248 38.6286 72.9052C38.0703 73.7787 34.8006 71.4489 30.6879 71.0885C28.1228 70.8638 26.9875 71.3628 26.1523 71.5966C25.8799 71.6729 27.934 71.7452 29.1421 71.7402C32.4023 71.7267 22.1909 72.0419 18.1889 72.81C17.2348 72.9931 16.4177 72.992 14.7946 72.8825C11.9929 72.6935 7.89696 72.7525 4.12346 72.6701C2.24884 72.6292 1.58004 73.0294 1.35947 73.2957C0.80927 73.9599 3.70297 74.1579 5.16144 74.2891C6.36572 74.3974 7.53198 74.369 8.69499 74.7971C8.99906 74.909 7.57372 75.1546 7.07315 75.229C7.03466 75.2347 7.68933 75.2863 7.87112 75.2744C7.95466 75.269 6.56527 75.1601 5.51789 75.142C4.67335 75.1274 7.88208 75.2135 8.64018 75.4366C10.7682 76.0629 2.68431 75.3203 2.55113 74.7564C2.20773 73.3024 2.23828 70.9035 2.16986 69.2869C2.16328 69.1315 2.02811 70.1093 2.02811 70.8696C2.02811 71.0375 1.96648 69.4494 1.87182 68.7566C1.84048 68.5272 1.83625 70.3937 1.78824 70.9284C1.70608 71.8434 1.23629 68.1428 1.11809 67.0898C1.09102 66.8486 1.08854 68.3158 0.99055 68.5876C0.868897 68.925 0.516786 67.6249 0.499023 67.3416C0.796147 68.2252 1.72891 69.1549 2.42104 69.9517C2.60953 70.138 2.83955 70.2783 3.38559 70.629" stroke="black" stroke-linecap="round"/>
</svg>
