<svg width="17" height="11" viewBox="0 0 17 11" fill="none" xmlns="http://www.w3.org/2000/svg">
<path d="M3.14599 5.40915C2.53462 5.07409 1.01304 4.24086 0.349472 3.90465C0.220231 3.83917 0.162912 3.79959 0.160105 3.75618C0.138607 3.42391 1.92066 3.24149 2.98743 3.06074C3.19522 3.02553 3.46351 2.99526 4.32712 2.85167C5.1907 2.70808 6.64253 2.45792 7.66931 2.26674C9.25834 1.97086 9.9539 1.80599 10.4593 1.69898C12.2526 1.31935 12.6023 1.1224 13.2609 0.962065C14.5225 0.654933 15.4473 0.443941 16.0398 0.258317C16.3065 0.174776 16.5171 0.152373 16.5992 0.161988C16.8513 0.191499 15.8736 0.811184 15.3011 1.35273C15.122 1.52219 14.9745 1.65742 14.6646 1.99152C13.9981 2.71016 13.3225 3.54694 12.8897 4.13862C12.6353 4.48647 12.4863 4.67775 12.1978 5.0571C11.5789 5.87082 10.9699 6.65236 10.7005 7.11277C10.4126 7.60458 10.0749 8.00036 9.73393 8.19068C9.44725 8.3507 9.10042 8.6574 8.3909 9.34454C8.05694 9.66794 7.7157 9.9742 7.44934 10.2562C7.39164 10.3172 7.35297 10.3705 7.31612 10.3644C7.07257 10.3243 7.01853 9.83948 6.83091 9.53998C6.67995 9.29898 6.48561 9.08429 6.29179 8.87087C6.09419 8.65335 5.86272 8.48248 5.63832 8.30146C5.40934 8.1168 5.29177 7.84926 5.11208 7.57779C5.03181 7.45652 4.96123 7.34136 4.92434 7.22585C4.67998 6.46074 6.97645 5.80999 7.39792 5.54814C8.10003 5.11192 8.7568 4.69343 10.1834 3.84247C11.6057 2.994 12.5457 2.44911 12.8024 2.28783C13.6397 1.7618 14.2142 1.52677 14.5744 1.34032C14.9835 1.12859 15.516 0.848681 15.8371 0.697952C15.9834 0.629268 16.1136 0.542586 16.1685 0.495285C16.3488 0.339792 15.5852 0.701171 15.3075 0.802235C15.0343 0.901657 14.734 1.03411 14.3926 1.1572C14.0889 1.26668 13.8051 1.36456 13.485 1.50482C13.1673 1.64402 12.8805 1.72972 12.3978 1.91546C11.3783 2.30783 10.471 2.71631 9.55098 3.11501C8.75926 3.45811 7.58067 3.97173 6.71974 4.26676C6.29256 4.41318 5.72881 4.69941 5.12781 4.93588C4.65383 5.12236 4.39282 5.21393 4.12095 5.28547C3.84957 5.35682 3.58513 5.44256 3.35309 5.56794C3.1182 5.69486 3.3498 6.07648 3.46633 6.31681C3.58215 6.5557 3.56984 6.83081 3.60096 7.15521C3.62788 7.43571 3.69602 7.72915 3.73455 8.0395C3.8552 9.01138 3.77298 10.1398 3.79095 10.0016C3.83727 9.64545 4.04732 9.34302 4.30475 8.91754C4.48782 8.61489 4.69471 8.31064 4.85119 7.97981C4.91802 7.83859 4.96148 7.70734 5.00252 7.64531C5.11373 7.47722 4.92088 8.09357 4.79695 8.33156C4.66276 8.58936 4.42594 9.03097 4.26431 9.37795C4.15523 9.61212 4.06816 9.85609 3.99107 10.1017C3.97174 10.1634 3.93408 10.2196 3.9478 10.2269C4.17643 10.3495 4.58125 9.69324 4.92112 9.4169C5.25854 9.1426 5.5397 9.01465 5.8319 8.84757C5.90553 8.80546 5.97614 8.76848 6.01505 8.71776C6.054 8.66703 6.05967 8.6046 6.04028 8.54833C5.95896 8.31209 5.69811 8.15946 5.48333 7.99301C5.24948 7.8118 5.1326 7.54382 5.02332 7.27978C4.89328 6.96553 4.79912 6.75515 4.73112 6.70762C4.54149 6.57502 4.6177 7.72153 4.56531 8.24111C4.55759 8.31762 4.50174 7.58355 4.49631 6.94394C4.49494 6.78046 4.38111 7.82116 4.23365 8.42896C4.19703 8.57988 4.11527 7.62762 4.1195 6.75032C4.11954 6.74519 4.13326 7.64204 4.10614 7.92273C4.02756 8.73611 3.97315 6.24799 4.02559 5.91159C4.07866 5.57125 4.67383 5.46021 5.52655 5.21735C5.82812 5.13143 6.15181 4.9374 6.29035 4.86174C6.8858 4.53649 4.20669 5.96748 3.96087 6.20726C3.91118 6.25575 3.8914 6.31878 3.93132 6.33365C3.97125 6.34855 4.08256 6.32142 4.69793 5.94151C5.3133 5.56159 6.4294 4.8297 7.13743 4.37955C8.10011 3.7674 8.69114 3.49632 9.42943 3.13856C10.4358 2.65088 11.0498 2.28224 11.1208 2.27233C11.1997 2.26133 10.8707 2.4796 10.5481 2.77846C10.0911 3.20173 9.16178 3.77216 8.13749 4.38758C7.528 4.75374 6.98832 5.00935 6.57204 5.27049C6.45648 5.343 6.54371 5.30483 7.3261 4.8769C8.10844 4.44897 9.5855 3.63524 10.405 3.19047C11.584 2.55063 12.1715 2.34018 12.477 2.20534C13.116 1.9233 10.5249 3.14739 9.98299 3.48552C9.09474 4.03973 8.37247 4.37323 7.31499 4.92737C6.69769 5.25087 5.94118 5.69946 5.58618 5.89304C5.23122 6.08666 5.30702 6.0217 6.13624 5.59177C6.96542 5.16179 8.54573 4.36877 9.32747 3.9689C10.1092 3.56899 10.0445 3.58623 9.96823 3.62005C9.80084 3.69427 8.99609 4.23707 7.84039 4.99616C7.10053 5.48214 6.2524 5.80991 5.72825 5.97083C5.67828 5.98618 5.65981 5.88427 5.74032 5.76268C6.26741 4.96646 7.17783 4.61877 7.43252 4.45321C7.50104 4.40869 7.41124 4.4056 7.29656 4.47376C6.7494 4.7989 5.77846 5.78721 5.12922 6.31064C5.07313 6.35583 5.00171 6.36628 4.96735 6.33963C4.93299 6.31299 4.92965 6.23855 4.95351 6.17771C5.0001 6.05883 5.14052 5.9767 5.19175 5.9091C5.37719 5.66412 4.57779 6.55629 4.42022 6.86682C4.37113 6.96356 4.40087 7.12035 4.43137 7.06011C4.58925 6.7485 4.60981 6.38203 4.60531 6.27289C4.59477 6.01761 4.18142 6.01003 4.0072 5.96187C3.92808 5.93998 3.85831 5.96094 3.81996 6.14311C3.70913 6.66949 3.78923 7.20697 3.82498 7.36652C3.92974 7.83399 3.74656 6.50724 3.7189 6.1491C3.71261 6.06767 3.69859 5.99822 3.6964 5.99885C3.12123 6.16641 4.24616 7.79734 4.35926 8.4374C4.37922 8.55056 4.37862 8.63236 4.38735 8.70676C4.43358 9.10083 4.52628 6.66975 4.64647 6.10238C4.669 5.99606 4.69588 5.91122 4.70059 5.8975C4.76094 5.72254 4.57791 6.41667 4.48206 7.05018C4.38083 7.71938 4.11982 8.04752 3.99811 8.3598C3.86766 8.69446 4.04369 7.16387 4.6272 6.05526C5.02368 5.30193 6.45893 4.55488 7.14226 4.1659C7.70958 3.84299 8.48131 3.54972 8.93714 3.3917C9.44287 3.21638 9.86409 3.11387 10.648 2.82197C11.1199 2.64627 11.6004 2.39521 12.4959 1.86852C12.9355 1.60996 13.4261 1.41376 13.7276 1.31732C13.8686 1.27224 14.0248 1.26518 14.1107 1.26864C14.3506 1.27832 13.2756 1.72657 12.7317 2.0105C12.3717 2.19845 12.0482 2.41472 11.5754 2.62288C10.9982 2.87701 10.3924 3.17586 9.97024 3.35677C9.48568 3.56443 9.14238 3.64266 8.68225 3.79769C8.38442 3.89803 8.14176 4.05783 7.87065 4.20091C7.7062 4.28768 7.49979 4.36019 7.04811 4.56581C6.11496 4.99069 4.96075 5.46943 4.09423 5.8939C3.7513 6.06188 3.59693 6.11944 3.53967 6.17492C3.36558 6.34368 3.83675 6.64069 4.01851 6.97805C4.1395 7.30419 4.19587 7.55597 4.25357 7.8115C4.27179 7.88025 4.29352 7.95532 4.3315 8.11278" stroke="black" stroke-width="0.32" stroke-linecap="round"/>
</svg>
