<svg width="68" height="61" viewBox="0 0 68 61" fill="none" xmlns="http://www.w3.org/2000/svg">
<path d="M7.22875 31.3365C7.18089 31.1094 6.84421 30.1834 6.25767 29.1269C5.73872 28.1921 5.234 27.3906 4.70871 26.4064C4.21143 25.4746 3.92553 24.6553 3.95762 23.8208C3.99157 22.9375 5.24193 22.3598 6.01663 21.7919C7.05649 21.0296 8.99783 19.787 10.0245 19.1457C10.844 18.6338 11.8505 17.5604 12.5694 16.9607C12.7223 16.8332 12.8526 16.6664 12.8157 16.6495C12.1427 16.3422 11.3618 17.529 10.6562 18.1145C9.98 18.6756 9.39876 19.5263 8.7055 20.0296C8.06602 20.4937 7.28494 20.6409 6.65444 21.1337C6.49093 21.2615 6.34789 21.4227 6.26532 21.2593C5.68008 20.1009 6.6485 19.1342 6.96795 18.3034C7.39261 17.1991 7.86417 15.7523 8.26238 14.7378C8.78453 13.4076 9.36554 12.5393 10.014 11.4421C11.1017 9.6018 11.9835 8.06549 12.4093 7.00664C12.9321 5.70648 13.5115 5.0798 14.0715 4.4179C14.6924 3.68393 16.0791 3.63436 17.8618 3.49973C22.9171 3.11795 23.8347 3.22534 24.6649 2.95704C25.4502 2.70325 26.0176 2.55005 26.3559 2.62713C27.0515 2.78562 26.7369 5.66029 26.5177 7.81056C26.485 8.13117 26.4484 8.32875 26.4321 8.32983C25.8184 8.37054 26.9465 6.73083 27.1124 5.85987C27.1539 5.64219 27.1847 5.43208 27.2207 5.42409C28.1415 5.2195 27.3005 8.0937 27.2753 8.13458C26.6511 9.14858 27.3367 5.60918 27.4291 5.21445C27.4718 5.03165 27.5356 6.05071 27.5356 6.48292C27.5356 6.485 27.5356 6.04597 27.566 5.93714C27.6091 5.78293 27.8269 6.59274 27.9901 6.57346C28.2714 6.54023 28.0485 5.35495 28.1883 5.25961C28.3281 5.16427 28.6056 5.91244 28.8307 6.25135C29.0964 6.6514 29.5542 6.49049 29.7529 6.53953C29.8013 6.55148 29.685 6.32751 29.5553 6.30373C29.4255 6.27996 29.2708 6.40958 29.1154 6.41899C28.7944 6.43842 28.5883 5.8602 28.4895 5.67076C28.4213 5.54013 28.4505 6.4537 28.4156 6.67634C28.3806 6.89897 28.3149 6.68782 28.2632 6.69011C28.2115 6.6924 28.1759 6.91452 28.1159 6.90953C27.8542 6.88771 27.8133 5.97063 27.7149 5.4323C27.6801 5.24173 27.8074 6.17652 27.8477 6.42436C27.9969 7.34204 27.3358 4.80172 27.295 4.68584C27.1366 4.23578 27.3294 6.42706 27.4549 7.01336C27.5123 7.28165 27.554 5.32717 27.6363 4.6789C27.7187 4.03064 27.8396 4.19475 28.0172 4.63404C28.6796 6.2727 28.7541 6.39738 28.835 7.20685C28.8582 7.43885 28.6208 7.30238 28.3895 6.9282C27.812 5.99407 27.5353 5.11239 27.4538 4.92061C27.4448 4.89936 27.4668 5.17099 27.5042 5.1397C27.7561 4.92875 27.6292 3.8356 27.6692 2.94706C27.7018 2.22568 28.153 4.91314 28.1191 5.28872C28.102 5.47796 27.831 4.61893 27.6715 4.28658C27.5298 3.99142 27.4858 5.1701 27.3763 5.48812C27.3373 5.60147 27.125 5.43637 27.0044 5.20864C26.7305 4.69117 26.6987 4.08757 26.6383 4.03929C26.5106 3.93719 26.5883 4.78126 26.6305 4.95414C26.6728 5.12734 26.8905 3.84809 26.9625 2.77909C26.9821 2.48793 27.1786 2.74859 27.2906 2.97373C27.4939 3.38216 27.6023 3.79058 27.6112 4.01693C27.6199 4.23638 27.2459 3.52746 27.2293 3.13002C27.187 2.11528 28.5354 2.02814 29.2336 1.75863C29.9331 1.48857 30.669 1.34276 32.1372 1.30968C33.1444 1.28699 34.054 1.77662 35.6178 2.2742C37.2325 2.78794 41.0913 1.98587 43.075 2.45754C43.3691 2.52747 43.5486 2.68187 43.7347 2.67566C44.585 2.64733 45.1571 1.47594 45.8374 1.11194C46.784 0.605483 47.6429 1.61378 48.3028 2.08343C48.9514 2.54509 49.1552 3.4985 49.613 4.35221C50.175 5.40027 50.7208 6.14821 51.3124 6.85989C51.8833 7.54647 52.4025 8.50373 52.9662 9.25246C53.4835 9.93943 54.2207 10.6149 54.7156 11.294C54.8184 11.4351 54.7119 11.6713 54.602 11.814C54.1278 12.43 53.2475 12.5826 52.6273 13.0524C51.9942 13.532 51.1718 13.5966 50.4119 13.6962C49.6174 13.8004 49.1327 14.6651 48.8178 15.3913C48.4601 16.2164 48.4906 17.3994 47.9905 18.417C47.7967 18.8114 47.4157 19.358 47.2482 19.538C47.0808 19.718 47.1107 19.4964 47.22 19.2203C47.6883 18.037 48.3023 17.4008 48.6784 16.455C49.0436 15.5367 49.4297 14.841 50.0842 14.5288C50.7894 14.1924 51.94 13.8539 53.3603 13.6546C53.6578 13.6128 53.8572 13.4787 53.9998 13.3261C54.5511 12.7362 54.4871 11.9172 54.7513 11.76C55.4029 11.3722 55.3053 13.5974 55.7236 14.2772C56.1631 14.9911 56.1895 15.9591 56.427 16.7593C56.6862 17.633 56.0037 18.5083 55.8044 19.3095C55.7034 19.7157 55.6542 20.1366 55.6399 20.5397C55.6094 21.3924 56.65 21.8545 57.2573 22.4043C57.9024 22.9883 58.5597 23.4318 59.1798 23.9352C59.5106 24.2038 59.8448 24.4715 60.1888 24.6542C60.3574 24.7438 60.5491 24.7306 60.7187 24.651C61.4772 24.2952 62.1267 23.6447 62.8627 23.3189C63.2236 23.1591 63.5439 22.8965 63.8808 22.7703C64.7006 22.4631 65.344 23.9118 65.6064 24.1686C66.4621 25.0062 66.1585 27.2789 66.78 28.4754C67.203 29.2898 65.9949 30.8097 65.2669 31.8467C64.6315 32.7518 64.1943 33.5102 62.0086 34.6643C60.4384 35.4934 59.0981 36.2979 55.4842 38.6589C54.7021 39.1698 58.9097 37.1819 59.689 36.803C60.6731 36.3247 61.8576 35.0152 62.717 34.2494C63.5796 33.4807 60.53 36.2773 59.7754 37.2375C59.2216 37.9422 58.6917 38.6155 58.1285 39.3167C57.5911 39.9861 57.159 40.9549 56.7063 41.9363C56.1401 43.1637 55.33 43.765 54.6264 44.2428C53.4191 45.0625 52.7393 46.9691 52.3039 47.7258C51.8758 48.4696 51.3633 49.1805 50.9 49.9065C50.7791 50.0959 50.6797 50.3168 50.5332 50.4405C49.5053 51.3087 45.2129 50.0883 43.0081 49.5387C41.825 49.2437 40.7396 48.6372 40.0512 48.1472C39.8548 48.0074 40.6673 48.26 42.9772 48.5266C43.4702 48.5835 43.5737 48.7845 43.579 48.9634C43.5901 49.3376 43.2588 49.6759 43.0364 50.0281C42.9249 50.2046 42.8651 50.4116 43.3244 50.5105C43.7838 50.6094 44.7765 50.6029 45.1871 50.6528C45.5977 50.7028 45.3962 50.8094 45.1847 50.9602C44.0407 51.7763 42.7522 52.6501 41.658 53.4576C40.8957 54.0201 38.9063 56.0212 37.4988 57.296C36.8988 57.8395 36.0826 58.0081 35.4317 58.4394C35.1016 58.6582 34.8565 59.0123 34.4559 59.2233C33.1211 59.9267 31.2466 59.0057 29.5632 58.5801C28.676 58.3558 28.0416 57.7462 27.3264 57.3671C26.6305 56.9984 25.7939 57.0486 24.9848 56.8624C24.7869 56.8168 24.6145 56.7316 24.5231 56.5919C24.4316 56.4522 24.4302 56.2439 24.4841 56.0547C24.7063 55.2738 25.2828 54.5907 25.6429 53.7261C25.9879 52.8974 26.2456 52.126 26.7548 51.488C27.398 50.6819 28.4192 50.5187 29.1371 50.1301C29.4829 49.9429 29.7499 49.6232 30.0026 49.329C30.6101 48.6218 30.3661 47.3733 30.5548 46.9353C31.0396 45.8098 32.8985 45.5051 33.6896 45.2647C34.0864 45.1441 34.49 45.0925 34.6782 45.0499C35.3236 44.9035 33.0463 45.5293 31.6041 46.3428C30.4532 46.9919 29.8374 47.9878 29.2038 48.7676C28.6252 49.4798 28.405 50.3512 28.1323 51.1391C27.7855 52.1412 26.7061 52.5001 26.2887 53.2091C25.8408 53.9697 25.7721 55.148 25.2917 55.8798C25.0726 56.2137 24.7298 56.4187 24.4929 56.6318C23.9803 57.0927 23.3727 55.714 22.655 55.2511C21.8305 54.7193 20.903 54.4308 20.3022 53.9498C19.6507 53.4282 19.099 52.4712 18.2981 51.748C17.6166 51.1327 16.6579 50.4231 15.7063 49.6918C15.102 49.2274 14.5621 48.916 14.4063 48.6103C14.0567 47.924 15.7948 46.8483 16.5002 46.0071C17.0238 45.3826 17.6841 44.8758 18.3619 44.3859C19.5672 43.5147 21.3907 43.8307 22.466 43.4161C22.9808 43.2175 23.5323 43.2361 23.8552 43.2007C24.3875 43.1423 22.4804 43.2595 21.6376 43.387C20.8784 43.5019 20.0329 43.5987 19.2735 43.9446C18.544 44.2768 17.6627 44.6956 16.7657 45.146C15.8087 45.6264 15.1839 46.3594 14.6996 47.094C14.2553 47.7681 13.7753 48.4395 13.1281 48.8482C12.4971 49.2465 12.176 50.117 11.5107 50.6764C10.8583 51.2251 10.1344 51.5502 9.53344 51.8222C8.9806 52.0725 9.64278 49.9009 9.35645 48.788C8.94212 47.1775 8.9354 46.2282 8.48745 45.4693C8.02631 44.6881 7.6163 43.8997 7.03844 43.1765C6.51174 42.5173 6.22374 41.7007 5.69303 41.1442C5.14009 40.5643 4.25792 40.4046 3.68629 39.7709C3.16979 39.1983 2.70872 38.5264 2.31206 37.8441C1.90538 37.1446 1.38433 36.5581 0.801972 36.0015C0.666809 35.8723 0.710904 35.6263 0.818081 35.4852C1.06337 35.1621 1.51634 35.0381 1.76134 34.6632C2.68351 33.2523 3.03679 30.9114 3.20278 30.0482C3.43087 28.8622 3.62168 28.0195 4.04449 27.2772C4.15088 27.0904 4.27534 26.9179 4.38552 26.9343C4.49571 26.9507 4.59732 27.1681 4.58848 27.3925C4.54074 28.6054 2.88106 29.779 2.18798 31.0082C0.738856 33.5782 1.60071 35.3065 1.27163 36.1011C0.897083 37.0054 2.09958 34.149 2.53812 33.228C3.17221 31.8965 4.40954 29.3327 4.80467 28.0326C4.89956 27.7204 4.83649 27.2738 4.81673 27.1754C4.48339 25.5161 2.94794 31.8006 2.45841 33.3955C2.0928 34.5866 1.56998 35.3846 1.50108 35.8134C1.34097 36.8098 2.61134 37.5289 3.20718 38.1369C4.01887 38.9652 4.68712 39.6675 5.23326 40.2966C5.92672 41.0955 6.30152 42.4241 6.86171 43.1935C7.6472 44.2724 8.31124 45.2469 9.56498 47.3653C10.1627 48.3753 10.7138 49.0401 10.7803 50.2118C10.8108 50.7492 10.5336 51.177 10.4097 51.2192C9.78952 51.4306 10.0481 49.7837 9.94077 49.5654C9.9104 49.5037 9.7983 49.7502 9.76904 49.9525C9.73978 50.1549 9.76335 50.359 9.8626 50.433C10.3758 50.8159 11.1309 49.8749 12.0066 49.5365C12.9307 49.1794 13.6835 48.6263 14.3333 48.1272C14.6567 47.8788 14.9883 47.6549 15.1933 47.6122C15.2513 47.6002 15.1348 47.8581 15.1647 47.8609C15.4208 47.8852 15.7628 47.2821 16.1174 47.1387C16.9509 46.8017 15.2878 49.0722 15.0476 49.2839C14.2222 50.0114 16.3563 46.8142 16.5218 46.7372C16.8001 46.6078 16.0181 47.8325 15.6822 48.3141C15.2934 48.8717 16.6968 46.9451 16.936 46.5865C17.4088 45.8779 15.4058 48.0139 15.2408 48.2792C14.6982 49.1515 16.7864 46.5213 16.6968 46.4719C16.4827 46.3538 15.9559 47.0599 15.7348 47.1215C15.4636 47.1971 16.3466 45.6784 17.2299 44.5906C17.3502 44.4424 16.8379 45.4989 16.4913 46.0124C16.3788 46.179 17.3718 44.8777 17.7217 44.4841C17.9424 44.2358 17.4347 45.5536 16.7749 47.0028C16.5772 47.4369 16.7603 47.3123 17.0188 46.951C17.2774 46.5898 17.6319 46.0091 17.6816 45.8351C17.7501 45.5953 16.0455 47.6115 14.3667 49.6598C13.4892 50.7304 17.0914 45.1447 17.7267 44.2839C17.8809 44.0751 18.0538 43.8765 18.0513 43.8262C18.0409 43.6154 17.4684 44.1951 17.1198 44.6111C16.8302 44.9567 16.8651 45.4649 16.948 45.7597C17.1934 46.6315 18.3526 44.5726 18.4997 44.4267C18.672 44.2557 17.8625 45.8081 16.9703 47.0397C16.4993 47.69 17.9333 44.4376 18.4797 43.8867C19.2394 43.1208 20.8423 43.3554 21.4779 43.0901C22.4538 42.6828 18.6676 43.5987 17.7885 43.796C17.5423 43.8513 17.2977 44.0047 17.2671 44.0766C16.9328 44.8633 19.3451 43.7337 20.333 43.3833C21.09 43.1148 22.567 42.9394 23.7296 43.262C24.2495 43.4063 24.7151 43.5484 24.8844 43.6579C25.4536 44.0258 22.1895 44.0007 20.6751 44.1357C19.3321 44.2553 18.1655 44.8821 17.2663 45.5032C16.5829 45.9751 16.0684 46.7559 15.6268 47.2295C15.4597 47.4089 15.9127 46.3048 15.8123 46.0251C15.6926 45.6915 14.7426 46.948 14.4386 47.2548C14.319 47.3755 14.9394 46.76 15.5223 46.2026C15.6343 46.0956 15.1442 47.1415 15.1154 47.1029C14.6956 46.5414 16.6118 44.6944 17.1672 43.8635C17.7225 43.0327 17.6664 43.2266 17.1667 43.9714C16.6671 44.7163 15.7255 46.0062 15.5936 46.4502C15.4617 46.8943 16.168 46.4534 16.5344 46.4718C16.9009 46.4902 16.906 46.9813 16.8339 47.2985C16.7617 47.6158 16.612 47.7443 16.3874 47.8106C16.1628 47.8768 15.8679 47.8768 15.7975 47.9257C15.3353 48.2461 16.9482 48.6456 18.0175 49.2453C21.2011 51.031 24.9548 54.7043 24.4954 54.6698C24.0334 54.6352 22.5993 53.1978 20.8001 51.4355C20.2178 50.8651 20.4439 50.7911 20.7865 50.851C21.1291 50.9108 21.6164 51.0655 21.9139 51.0511C22.2113 51.0368 22.3042 50.8486 21.9827 50.1352C21.0659 48.1013 20.109 46.7239 20.1309 46.4221C20.1916 45.5891 24.2086 48.497 25.7049 49.3755C27.9235 50.678 23.087 46.8955 22.9633 46.5615C22.906 46.4065 23.0941 46.2303 23.2983 46.171C25.814 45.4404 29.3486 48.2265 29.2476 47.7351C29.1861 47.4362 28.916 47.1043 28.7406 47.0153C26.6538 45.9558 22.351 48.9348 21.4114 49.0646C21.0753 49.111 21.8563 50.2698 22.5661 51.3449C22.7947 51.6913 22.5271 51.7876 22.3278 51.802C21.0454 51.8952 19.4795 50.9299 19.3549 50.7849C18.3809 49.6521 22.8177 52.5039 23.5115 53.3059C23.6459 53.4612 23.738 53.6622 23.6907 53.8076C23.6434 53.953 23.4303 54.0583 23.0741 54.0105C20.9665 53.7278 19.4898 52.0438 19.028 51.6329C18.2029 50.8989 21.6313 53.6061 22.3844 54.3065C22.9826 54.8628 23.9001 55.0613 24.4901 55.309C24.5447 55.3319 24.3211 55.4453 24.3235 55.4941C24.3259 55.5429 24.5096 55.5664 24.6875 55.5256C25.049 55.4427 25.3312 55.1006 25.4441 54.9505C25.9024 54.3416 24.6581 56.3514 24.4242 56.8213C23.5631 58.551 27.7797 53.0152 27.8941 52.8966C28.8703 51.8839 26.2185 55.8199 26.0789 55.9374C25.3961 56.5125 27.1095 53.6036 27.7705 52.5122C27.8616 52.3616 27.2021 53.9002 26.2369 55.666C26.0522 56.0039 26.6282 54.455 27.5457 52.7788C27.7062 52.4856 26.9784 54.0405 26.319 54.8391C26.0701 55.1404 27.4066 52.4334 27.8185 51.5852C28.0451 51.1187 27.0905 52.5837 26.4216 53.3194C24.8703 55.0256 28.5369 48.9671 28.7657 48.5994C29.2043 47.8947 28.1248 51.3253 27.5246 52.5275C27.1192 53.3395 28.5524 51.4061 28.6916 51.3109C28.9933 51.1045 28.1104 53.0278 27.4333 54.4377C27.0113 55.3164 28.8556 51.6098 28.9902 51.2916C29.0758 51.089 28.6883 52.2495 28.4269 52.7733C28.2535 53.1207 28.9117 51.5465 29.1146 50.9744C29.1496 50.8758 29.0496 51.5022 29.1108 51.8376C29.4085 53.4689 33.0314 51.1846 33.8964 50.6081C34.0736 50.49 34.2137 50.2869 33.8836 50.536C33.5535 50.7852 32.7291 51.462 32.3859 51.6781C32.0428 51.8941 32.206 51.6289 32.3658 51.4074C32.6598 51.0001 32.9937 50.7045 33.0975 50.5701C33.3324 50.2662 31.7581 51.6277 30.689 52.6559C30.3654 52.9671 30.3756 52.6933 30.5529 52.1534C30.7302 51.6135 31.0458 50.7754 31.2357 50.2407C31.4255 49.706 31.48 49.5001 30.8617 50.0803C30.2435 50.6604 28.9509 52.0329 28.7746 52.1747C27.8032 52.9557 30.7977 49.7262 31.0358 49.3785C31.1515 49.2096 29.812 51.1222 28.8433 52.3586C27.6054 53.9385 30.6175 48.2321 30.4146 48.2122C29.9232 48.1638 29.2646 49.8417 29.5165 49.6594C29.7685 49.4771 31.1099 47.8448 31.7633 47.1123C32.2852 46.5272 31.0261 48.7074 29.9411 50.3262C29.77 50.5814 31.6751 47.574 31.8687 47.2452C32.8323 45.6081 29.4317 50.9366 29.3213 51.0729C28.5916 51.974 30.8515 48.522 31.1422 47.7205C31.283 47.3322 32.0743 46.9437 32.7481 46.453C32.9241 46.3249 32.6233 46.2614 32.5588 46.1894C31.0644 44.521 38.3215 44.0491 38.18 44.084C36.5634 44.4826 35.1609 44.7728 34.9858 44.9621C34.9178 45.0356 35.1458 45.1908 35.139 45.2984C35.1208 45.5854 34.5608 45.5843 34.544 45.6548C34.4949 45.8612 35.2936 45.8665 35.4624 45.9542C35.5822 46.0164 34.9252 46.103 34.7279 46.1065C34.4998 46.1106 35.5314 46.192 35.6988 46.3059C36.4645 46.8268 33.7257 46.4637 33.3297 46.5872C32.6591 46.7964 34.9101 46.6387 35.3351 46.4927C35.4272 46.4611 35.1792 46.3465 35.1723 46.2667C35.1478 45.981 36.2526 45.8496 36.9924 45.599C38.0142 45.2528 34.0242 46.169 32.1546 47.2273C31.8882 47.3781 32.638 47.57 32.4595 47.6873C29.9413 49.3409 29.1669 49.8857 29.0159 50.1488C28.9198 50.3161 29.6374 49.879 29.981 49.6472C30.1142 49.5574 29.6342 50.1447 29.4777 50.2274C29.1015 50.4262 30.2149 49.5303 30.231 49.5629C31.6436 52.4307 26.374 55.1444 26.2996 55.3248C26.2948 55.3365 26.3643 55.0886 26.3686 55.1153C26.4192 55.427 25.9897 56.2264 25.6493 56.8831C24.807 58.5085 28.3824 53.2436 28.1184 53.6563C27.881 54.0273 27.576 54.3272 27.4889 54.4029C27.0644 54.7721 29.4531 50.6026 31.8576 46.5664C32.6151 45.2948 32.497 45.6473 31.8273 46.5091C30.0325 48.8189 28.6179 50.3398 29.0176 49.8496C30.7318 47.7473 31.8905 45.9016 32.1938 45.6138C32.5194 45.3047 33.6011 45.3153 34.7065 45.3503C35.3559 45.3708 33.0275 45.9916 32.8202 46.1938C32.6282 46.3811 33.6371 46.2485 34.0376 46.1237C34.2256 46.065 33.1502 46.3727 32.5871 46.7432C32.4223 46.8517 32.6528 47.0005 32.7122 47.162C33.5737 49.5037 27.9945 52.5846 27.4332 53.3136C27.3863 53.3745 27.3286 53.0696 27.1759 53.2648C25.6606 55.2017 33.7075 45.3143 32.8052 46.5428C30.6355 49.4975 29.0909 51.0387 29.2576 50.4718C29.3465 50.1697 29.5072 49.8634 29.4783 49.7533C29.4122 49.5019 28.443 50.7238 28.0777 51.3279C27.895 51.63 29.3419 49.6193 29.7998 48.9607C30.6933 47.6759 26.6886 53.1003 26.7988 52.8943C27.2272 52.093 26.3105 54.9009 26.3786 55.6835C26.4147 56.0985 26.7213 56.4748 26.6359 56.9506C26.5517 57.4194 25.9733 57.5642 25.8591 57.7845C25.51 58.4577 27.4298 58.1316 29.9254 58.5738C31.8772 58.9197 34.0895 60.0057 34.9907 60.2019C36.0552 60.4336 38.6076 58.0035 41.0885 56.0054C41.7423 55.4789 42.3071 54.6924 42.7834 54.1094C43.6404 53.0604 40.0389 56.3749 40.1649 56.1389C41.55 53.5443 42.3686 53.0046 42.8549 52.1375C43.0004 51.8781 43.2886 51.632 42.5351 52.126C37.5765 55.3771 36.5405 56.9258 36.1634 57.594C35.7632 58.3032 38.1322 56.6241 41.591 53.0712C42.4531 52.1857 42.7987 51.939 42.9823 51.6988C43.3999 51.1525 41.7561 50.8137 41.1378 50.3249C40.9952 50.2121 41.0065 49.9622 40.9889 49.6391C40.9475 48.8785 42.6583 46.7596 44.745 44.6874C46.5065 42.9382 42.1961 47.4022 41.7051 47.7907C40.1637 49.0103 44.9903 43.9325 44.7357 44.3683C44.0544 45.5345 43.1691 46.645 42.8574 47.5381C42.7441 47.8625 42.8116 48.377 42.8896 48.7112C43.0158 49.2519 43.5148 49.4759 43.9571 49.6608C44.3623 49.8303 44.9114 49.835 45.2601 49.8328C45.5331 49.8311 44.3513 49.5408 44.0635 49.3234C42.7125 48.3026 47.0337 50.2121 47.1876 50.3524C47.8686 50.9736 44.8416 49.5575 44.0019 48.8196C43.8469 48.6834 43.754 48.4663 43.7777 48.3166C43.8014 48.1669 43.9695 48.0618 44.1498 48.0362C44.5156 47.9842 45.4084 48.472 46.3804 49.0815C46.6965 49.2797 46.4842 49.5168 46.1567 49.5936C45.3657 49.7791 44.6116 49.4591 44.1422 49.091C43.1853 48.3406 42.9709 47.3216 42.8506 47.1036C42.2661 46.0442 42.9875 50.126 42.9359 50.6301C42.8712 51.2614 42.4892 49.4097 42.4115 49.1905C42.3426 48.9964 42.659 50.0337 42.8762 50.6298C42.9372 50.797 42.7043 50.7404 42.5491 50.6045C42.3939 50.4686 42.2739 50.2681 42.2054 50.2937C42.1368 50.3193 42.1234 50.577 42.0442 50.4482C41.6899 49.8722 41.6594 48.9675 41.7118 48.6096C41.8505 47.6614 42.9727 50.4122 43.2398 50.6407C43.3165 50.7063 43.355 50.4045 43.4602 50.2774C43.9925 49.6337 45.3149 50.9111 45.8623 50.9545C47.055 51.0489 44.2495 49.2178 43.8375 48.3305C43.6267 47.8765 43.6502 47.2724 43.7081 46.904C43.8726 45.8567 45.3907 49.0081 46.0528 49.4911C46.739 49.9917 47.4359 49.8446 47.5835 49.9628C47.8463 50.1733 45.3061 50.1424 42.8544 50.1772C42.0975 50.1879 42.3325 50.2814 42.9335 50.5605C44.5085 51.2919 45.6945 51.902 45.9609 51.9047C46.9002 51.9142 44.4587 49.5884 44.0059 48.64C43.6506 47.8958 46.5763 49.7743 48.9225 50.2349C50.9294 50.6289 51.816 50.0368 52.5055 49.5994C53.2285 49.1407 53.8844 48.2489 54.6776 47.192C56.4505 44.8297 56.4763 43.2354 57.1408 42.0714C57.6688 41.1464 58.6905 40.141 59.3458 39.3956C60.2141 38.408 60.7289 36.6057 61.2327 35.8938C61.5479 35.4484 61.9377 35.1494 62.0518 35.0352C62.26 34.8267 59.6227 36.542 56.2291 38.5131C54.8231 39.3297 53.9446 39.5193 53.7157 39.6283C52.4029 40.2534 56.8881 38.6624 57.0157 38.5187C57.5773 37.8866 54.3261 39.454 52.3614 40.2001C51.9641 40.351 53.6583 40.0537 55.7115 39.4744C56.183 39.3413 53.0273 39.8299 48.4519 40.7721C46.8 41.1123 46.4959 41.0984 46.3597 40.9851C46.099 40.7685 46.1857 40.2114 46.1097 39.928C45.9365 39.2823 47.4212 40.2414 49.9247 40.9153C50.5546 41.0848 50.9672 41.0677 51.0776 41.0368C52.202 40.7216 48.7711 38.8139 48.8067 38.7483C49.2836 37.8688 50.8132 39.57 51.3743 39.8591C53.38 40.8922 45.0592 39.9113 44.3989 39.6514C42.8455 39.0399 47.154 40.2194 47.2983 40.1698C48.7538 39.6698 44.8627 37.9115 44.6045 37.5957C43.6527 36.4318 48.6537 39.1088 50.5423 39.558C52.1817 39.9479 53.5137 39.5445 54.8215 39.015C57.6049 37.8882 59.6482 36.6724 59.3609 36.9015C58.7646 37.3769 57.1973 38.4913 56.7168 38.9096C56.2363 39.328 56.8756 38.9935 57.1179 38.9265C57.2599 38.8872 56.4451 39.7779 55.6883 40.4699C55.6199 40.5325 56.7904 39.6098 58.1 38.4274C58.2975 38.2491 57.2434 39.3031 55.994 40.4153C55.8242 40.5665 57.1659 39.7497 58.4291 38.6786C58.6169 38.5194 56.7117 41.3179 55.0679 43.3925C52.6015 46.5054 59.7696 36.8889 59.2269 37.8989C58.565 39.1308 57.1295 41.8306 56.4263 43.0308C55.7231 44.2311 55.7985 43.8519 56.13 43.1641C56.9618 41.4378 58.122 39.7867 58.1947 39.5801C58.4097 38.969 56.5078 41.7408 55.8876 42.5068C55.3923 43.1187 56.684 40.9278 57.7159 38.8234C58.8431 36.5243 53.2688 42.6633 52.2371 43.3725C50.182 44.7851 57.0132 39.3477 56.5153 39.6582C54.5542 40.8815 53.0081 43.3627 52.7854 43.7447C52.715 43.8655 54.5714 42.1572 56.735 40.0933C57.1357 39.7111 55.6712 41.4499 53.8052 43.3405C53.4918 43.6581 54.6958 41.9359 56.2006 39.9491C56.6901 39.3028 56.4231 39.2201 55.4151 39.5332C54.407 39.8463 52.6149 40.514 51.7952 40.8429C50.9755 41.1719 51.1824 41.1418 51.826 40.8847C52.4695 40.6277 53.5433 40.1445 53.6726 40.0714C54.3508 39.6883 51.5423 40.8534 50.8514 41.0766C50.1369 41.3074 52.5263 41.3719 52.2926 41.3751C51.8664 41.3808 50.8154 41.3761 50.895 41.3759C50.9745 41.3756 52.2164 41.3751 52.7413 41.3397C53.2661 41.3043 53.0363 41.234 52.7421 41.1978C52.4479 41.1615 52.0965 41.1615 52.5956 41.1348C53.0948 41.108 54.4553 41.0544 54.5724 41.0265C54.6896 40.9987 53.5222 40.9982 53.342 40.9934C52.6797 40.9761 55.0831 40.9352 55.2901 40.8531C55.5214 40.7613 53.9544 40.6253 53.2516 40.5194C53.075 40.4928 54.6794 40.4702 55.1887 40.4484C55.4305 40.4381 54.7515 40.3594 54.3958 40.3592C53.8781 40.359 55.6512 40.3092 56.1011 40.1891C56.4887 40.0857 57.7644 38.8705 59.4251 37.3825C59.7998 37.0467 58.5845 38.8278 56.8566 40.7958C56.5231 41.1756 57.5428 40.0977 58.6728 38.8135C58.9146 38.5386 57.9079 40.0498 56.9329 41.1488C54.1662 44.2675 59.9431 37.1623 60.0304 37.154C60.5933 37.1005 57.195 41.3573 54.9557 44.7034C52.7 48.074 60.466 38.4403 60.5692 38.4342C61.1274 38.4008 59.5374 39.8945 58.9044 40.5816C57.887 41.686 61.4207 36.0998 61.8949 35.3376C63.2213 33.2055 58.7129 38.9707 58.6392 39.1905C58.5338 39.5048 60.2669 37.9269 61.8443 36.3973C62.1488 36.1021 61.0381 37.8509 59.5022 39.7041C58.5977 40.7954 62.3178 35.9516 62.6166 35.6139C62.7188 35.4985 61.9881 35.9056 61.804 35.9338C61.6224 35.9616 62.4253 35.2399 62.6155 35.0722C62.6592 35.0337 61.9481 35.9389 61.5311 36.4958C60.7569 37.5297 63.5534 34.8254 63.5389 34.8361C63.3552 34.9731 62.8314 35.4056 62.8849 35.3779C63.6524 34.9794 64.4686 34.2075 64.7037 34.0507C64.7306 34.0327 64.572 34.1437 64.583 34.0472C64.7074 32.9589 65.3476 32.0676 65.8074 31.2227C65.9632 30.9365 66.4607 31.3075 66.7026 31.3243C66.9638 31.3424 66.4775 31.9956 66.3257 32.1358C66.1582 32.2904 66.3642 31.4622 66.3266 31.1904C66.0813 29.419 63.1822 34.4865 63.3581 34.3183C65.4072 32.3595 66.08 31.9174 67.1428 30.7102C67.6366 30.1492 65.566 33.1176 64.5623 33.9794C64.4617 34.0658 64.3794 33.7664 64.4035 33.532C64.4277 33.2975 64.5338 33.0357 64.5605 33.0128C65.2159 32.4506 61.9468 35.1414 59.9527 36.2715C57.92 37.4234 54.6616 38.9322 53.2562 39.0671C51.4031 39.245 50.5383 39.801 47.9668 39.887C47.8001 39.8925 48.792 39.9409 49.8266 40.1278C51.6493 40.4572 44.3883 39.2403 44.2611 39.1401C42.9734 38.1251 48.4574 40.2465 49.2814 40.3564C49.8422 40.4312 47.7187 39.6022 47.1471 39.2161C46.9928 39.1119 47.2061 39.0605 47.4079 39.0678C47.8187 39.0826 48.7392 39.3803 49.5632 39.6357C49.9665 39.7607 47.886 39.0161 46.835 38.7036C46.7724 38.6849 48.0887 39.0684 49.4709 39.6904C50.2247 40.0297 46.4299 39.0594 45.6816 38.9309C45.0612 38.8244 47.5058 39.8541 48.5141 40.1178C49.4342 40.3584 50.4063 41.0678 52.2748 41.5399C52.7416 41.6579 53.0524 41.6968 53.1216 41.7998C53.1908 41.9027 53.0142 42.0396 52.8169 42.0814C52.4141 42.1668 51.8961 41.8463 51.5673 41.6615C50.9839 41.3335 52.5972 42.4031 52.8991 42.6548C53.5586 43.2046 54.8416 41.9751 55.7543 41.304C56.4699 40.7779 57.1973 40.5134 57.3302 40.3084C57.4604 40.1077 56.5919 40.4473 56.2087 40.6334C56.106 40.6833 58.3623 39.2568 60.9153 37.5291C61.6057 37.0619 61.0629 37.4181 60.8399 37.5233C60.0042 37.9173 62.9984 35.7576 63.0568 35.7705C63.7211 35.9175 60.8502 37.1994 59.4938 37.8406C57.1258 38.9598 62.9954 35.3417 64.4176 34.6791C64.8568 34.4746 65.1514 34.1852 65.4332 33.9041C66.6591 32.6815 65.8182 29.0232 65.7591 27.6675C65.7322 27.0508 65.6405 26.5684 65.5095 26.1747C65.2644 25.4376 64.597 25.0209 64.2181 24.1053C64.1251 23.8807 64.0791 23.6748 63.9637 23.5338C63.8483 23.3927 63.675 23.318 63.5064 23.3414C62.7782 23.4426 61.4623 24.8088 59.8323 26.351C58.9135 27.2202 58.1515 28.4663 57.3199 29.5276C56.4542 30.6322 55.8601 31.212 55.3296 31.8308C54.8145 32.4317 53.9778 32.6469 53.3772 33.2073C53.2295 33.3451 53.0766 33.4681 53.0649 33.4035C52.9001 32.4954 54.158 31.8788 54.7126 31.2632C55.2917 30.6205 55.9762 30.077 56.6493 29.4192C57.5016 28.5863 57.959 27.9384 58.3277 27.1703C58.7833 26.221 59.6464 25.8082 60.3641 25.0565C60.5323 24.8803 60.5546 24.6532 60.5521 24.4518C60.5496 24.2503 60.4902 24.0504 60.3937 23.8742C59.9938 23.1441 58.8774 23.1916 58.4293 22.6359C57.5813 21.5844 61.1518 21.2957 61.5767 21.2348C62.411 21.1153 63.0134 22.3929 63.2263 22.8909C63.7459 24.1063 61.3037 21.8834 60.2291 21.8652C59.4254 21.8517 58.6709 22.5981 57.6679 23.0249C57.3552 23.158 56.9051 23.1034 56.7523 23.0421C56.5995 22.9808 56.7397 22.8433 56.9231 22.7487C57.3089 22.5498 57.7001 22.4272 58.0265 22.2432C58.3893 22.0387 58.8702 22.3292 59.24 22.5394C59.9326 22.9332 60.0192 23.8228 59.9948 24.1269C59.9845 24.2541 59.7391 24.223 59.5647 24.1606C59.213 24.0347 58.9493 23.6901 58.8394 23.4985C58.8254 23.4741 59.0027 23.5936 58.9833 23.5765C58.3759 23.0405 57.7987 22.483 57.6094 22.2583C57.4587 22.0794 58.3957 22.2442 58.8576 22.3717C59.3435 22.5058 57.4806 21.9703 56.8498 21.6316C56.6376 21.5177 58.82 21.4038 61.2639 21.4866C62.8514 21.5404 63.4928 23.072 63.6875 22.8989C63.9363 22.6778 63.2873 22.2064 63.17 22.0403C63.053 21.8746 63.5486 22.6487 63.8207 22.8751C64.0133 23.0354 63.6288 22.0161 63.3764 21.6178C62.9842 20.9985 64.3077 22.9403 64.2985 23.1099C64.2325 24.3318 62.6544 22.1964 62.5906 22.2421C62.4437 22.3475 63.0292 22.8586 63.091 23.1387C63.1529 23.4187 62.9199 23.5133 62.6987 23.5261C62.2722 23.5508 61.8963 23.2812 61.682 23.2112C61.6261 23.1929 61.7238 23.4518 61.6661 23.5176C61.4831 23.7258 60.8784 23.4175 60.489 23.417C60.4132 23.4169 60.5902 23.4828 60.6982 23.619C60.8063 23.7551 60.8414 23.9762 60.7661 24.0557C60.6909 24.1352 60.5042 24.0665 60.3369 23.9503C60.1697 23.8342 60.0275 23.6727 60.0487 23.5552C60.0699 23.4378 60.2587 23.3693 60.4685 23.3492C60.902 23.3077 61.2673 23.5307 61.3693 23.6859C61.3886 23.7151 61.1444 23.5867 60.9927 23.432C60.841 23.2772 60.7387 23.0854 60.7937 22.9729C60.936 22.682 61.5168 22.9533 61.789 23.103C61.9469 23.1898 61.3305 22.5291 61.1378 22.1588C61.0914 22.0697 61.314 22.1264 61.4864 22.219C61.6587 22.3115 61.8162 22.4241 61.77 22.5062C61.3292 23.2896 59.984 22.6326 58.7722 22.663C58.6025 22.6672 59.3865 23.0772 60.0098 23.2392C60.2758 23.3083 60.4585 23.2366 60.4275 23.1594C60.2958 22.8314 59.7039 22.8185 59.8157 22.8532C60.1176 22.9468 60.9338 23.1215 61.277 23.2975C61.6202 23.4736 61.4698 23.627 61.2296 23.8591C59.8955 25.1489 59.0274 26.4485 58.8239 26.6193C58.6063 26.802 59.1136 25.8854 59.2537 25.7343C59.4188 25.5562 58.5958 26.8072 58.0572 27.7004C57.9906 27.8109 58.9241 26.078 60.1735 24.2422C60.2623 24.1119 58.7206 25.9869 57.0673 28.2268C56.5489 28.9292 56.6234 28.6958 56.9206 28.122C57.2178 27.5482 57.7206 26.6273 57.9652 26.2588C58.1179 26.0287 56.9431 27.9161 55.2257 30.2701C54.6891 31.0056 54.9409 30.9022 55.3649 30.5242C55.7888 30.1463 56.4051 29.5207 56.6526 29.3066C57.2897 28.7556 54.7305 31.2304 54.1506 31.7051C53.1216 32.5476 56.0816 30.1229 56.3283 30.0654C57.377 29.8207 53.9631 32.6311 52.1049 33.5187C51.0631 34.0163 55.5592 30.559 57.7684 28.1407C58.4539 27.3902 58.9094 26.8805 59.2438 26.4225C59.5219 26.0416 59.551 25.2463 59.4579 24.3936C59.3572 23.4721 58.0442 23.3633 57.3461 23.0632C56.6383 22.7589 56.3528 21.6366 55.4203 20.5531C54.806 19.8394 54.449 19.0873 53.9173 18.3773C52.9605 17.0996 50.4807 14.4901 48.9683 13.1101C46.9885 11.3036 44.8274 10.7017 44.0038 10.1966C43.6586 9.98486 43.3724 9.71142 43.2456 9.50989C42.7201 8.67477 45.6958 10.1815 48.3349 12.0005C49.4074 12.7397 49.8147 13.7353 50.3806 14.4299C51.0032 15.1942 51.5497 15.6252 51.8261 15.6874C52.164 15.7633 52.1744 14.7013 52.2747 14.0779C52.3045 13.8927 52.4947 14.0519 52.5969 14.2234C52.8017 14.567 52.8999 15.1334 53.0497 15.5363C53.1199 15.7253 53.2481 14.9438 53.2972 14.7046C53.5148 13.6459 53.7309 17.0918 53.7474 16.8953C53.7848 16.4497 53.7656 15.2947 53.8131 14.8452C53.8359 14.6291 54.1426 15.8439 54.3112 16.5113C54.361 16.7083 54.3792 15.0442 54.4062 14.5261C54.4195 14.2712 54.7998 15.7021 55.2013 16.4404C55.397 16.8002 55.3027 14.0854 55.3457 14.2608C55.3886 14.4363 55.5018 16.806 55.5074 17.2081C55.513 17.6103 55.4076 15.9731 55.3593 15.4929C55.3344 15.2449 55.4347 17.1881 55.5838 18.0442C55.6282 18.2991 55.4803 16.3319 55.2314 14.8602C55.1827 14.5723 55.3364 16.5986 55.8019 19.1465C55.9433 19.9202 55.9652 19.6222 55.9139 19.2439C55.7998 18.4029 55.3171 16.8846 54.9199 15.5967C54.4614 14.1103 55.4914 18.2346 55.4058 18.5097C55.0927 19.516 54.4237 15.5813 54.3993 14.6504C54.3816 13.9769 54.5169 17.2075 54.5518 18.0037C54.5987 19.0747 54.1534 14.0017 54.1585 13.3684C54.1627 12.8382 54.2728 15.2846 54.389 16.3932C54.3958 16.4582 54.2001 14.9772 53.9528 13.4039C53.6917 11.7436 54.1477 16.9628 54.1233 17.3033C54.1112 17.4721 53.725 16.2007 53.291 15.2445C53.1913 15.0248 53.1437 16.1456 53.115 16.4701C53.1043 16.5903 52.7904 15.8482 52.6255 15.7447C52.4605 15.6412 52.3745 16.0016 52.3476 16.3533C52.2955 17.0348 52.5457 17.9188 52.7555 18.6086C52.9855 19.3648 52.0849 16.7906 51.9197 16.5159C51.8952 16.4751 51.9457 16.6828 51.9406 16.6816C51.7439 16.6345 51.5524 15.9111 51.4569 15.6363C51.4009 15.4753 52.1111 16.2422 52.3783 16.3321C52.7274 16.4495 52.524 15.3074 52.428 14.8034C52.3818 14.5607 53.2693 15.4215 53.9773 16.1685C54.2611 16.468 54.4089 16.5856 54.0247 16.1412C53.6405 15.6968 52.7241 14.6819 52.2623 14.2988C51.8005 13.9157 51.8211 14.1953 51.8799 14.4864C51.9388 14.7774 52.0355 15.0714 51.9377 15.0692C51.8399 15.067 51.5448 14.7597 51.3835 14.7064C51.2223 14.6532 51.2039 14.8633 51.2523 15.0843C51.3549 15.5528 51.2363 15.1705 54.245 17.9678C55.0425 18.7092 55.243 19.192 55.4181 19.5023C55.5931 19.8126 55.6851 19.9992 55.727 19.4411C56.0343 15.3529 55.224 13.2662 55.0933 12.9974C54.9592 12.7215 55.2472 14.6102 55.5372 15.9924C55.5824 16.2078 55.7098 15.0851 55.7018 13.9462C55.701 13.8396 55.8161 14.8218 56.0306 15.8654C56.0457 15.9389 55.5176 14.3129 54.7284 12.2782C54.4753 11.6255 54.3391 11.8405 54.2023 11.9939C53.6476 12.6158 52.8781 12.8162 52.0432 13.0442C50.9615 13.3396 49.5105 13.0638 48.9142 12.5744C48.2839 12.0572 47.6533 11.528 46.5718 11.103C45.3879 10.6377 44.5884 10.2649 43.6787 10.0426C42.8958 9.85136 42.1615 9.52796 41.5354 9.06201C41.3815 8.9475 41.233 8.8266 41.1948 8.6737C40.8324 7.22139 44.0337 5.95163 44.9754 5.05655C45.1375 4.90243 44.4769 5.60513 44.3482 5.74136C43.7943 6.32755 45.6589 4.59256 45.8531 4.48546C46.0136 4.39696 45.4321 4.89329 45.2712 4.99387C44.6966 5.35307 46.4746 4.27681 46.8766 4.0386C47.5384 3.6464 47.6539 2.84601 47.7979 2.71223C47.8045 2.70609 47.6217 2.82697 47.6263 2.90445C47.6399 3.13875 48.5526 2.87755 49.3125 2.5502C49.5505 2.44768 49.3774 2.24113 49.1534 2.12716C47.9949 1.53781 46.6333 1.69134 45.8334 1.54132C45.0685 1.39786 44.5222 1.76653 44.1997 1.85457C43.3547 2.08531 43.0785 4.12155 42.5296 5.29576C42.3717 5.63346 42.3241 5.35855 42.3087 5.34609C42.1439 5.21298 41.9585 6.66909 41.5346 7.84549C41.5019 7.93623 42.2762 6.63201 43.4341 5.15574C43.8168 4.66774 43.9698 4.9103 43.9496 5.15508C43.9029 5.72076 43.4324 6.26294 43.1714 6.55414C43.0282 6.71392 43.6719 5.41922 44.3215 4.5368C44.4072 4.4204 44.0044 5.14444 43.4738 5.55755C42.8213 6.06551 44.3365 3.829 44.5555 3.63787C44.7459 3.47176 43.6553 5.34417 42.191 7.05215C41.8432 7.4578 43.1019 5.35503 45.082 2.90104C45.7074 2.12589 45.7414 2.49454 45.6697 2.76008C45.598 3.02563 45.4653 3.22528 45.4757 3.26646C45.4862 3.30764 45.6439 3.18429 45.7046 3.2701C46.3024 4.1163 44.5334 5.21483 44.4814 5.36386C44.0766 6.52402 46.4759 4.11166 46.7445 3.95498C46.9219 3.85155 45.6352 4.43452 44.8734 4.85579C44.3681 5.13524 46.1449 4.03889 46.4154 3.95016C47.2515 3.67598 44.5134 4.95579 44.3483 4.86163C42.8951 4.03285 47.4323 2.99277 47.9532 2.77328C48.5782 2.50994 46.4079 2.60554 46.2879 2.65393C46.2271 2.67847 46.6626 2.6822 46.7382 2.73904C46.8138 2.79588 46.6431 2.90041 46.4583 2.95426C46.2734 3.00811 46.0797 3.00811 45.9486 2.91116C45.8175 2.81421 45.7551 2.62031 45.8152 2.50552C45.8753 2.39074 46.0599 2.36095 46.2405 2.38414C46.4212 2.40734 46.5924 2.48443 46.5951 2.56883C46.6033 2.82355 45.8566 2.92406 45.3481 3.09697C45.1987 3.14781 46.0832 3.26798 47.7638 3.26621C48.3812 3.26556 46.2369 3.79429 45.7884 3.71367C45.3666 3.63783 45.256 2.99914 45.2201 2.66683C45.2033 2.51135 45.4309 2.40822 45.4457 2.45752C46.0445 4.45255 41.2069 6.30834 40.6208 7.2013C40.291 7.7039 40.3098 8.34159 40.2823 8.58519C40.2755 8.64605 40.4718 8.50501 40.5394 8.55398C40.6069 8.60295 40.5881 8.82717 40.4894 9.00696C40.0486 9.80972 39.0727 10.0646 38.2939 10.2189C37.4808 10.3799 36.7531 10.7082 35.9775 10.8373C35.2221 10.9631 34.5118 11.2836 33.8657 11.7967C33.2053 12.3213 32.8002 13.1124 32.1493 13.7365C31.5594 14.3021 31.1599 15.0786 30.5035 15.6272C29.8891 16.1407 29.1196 16.3622 28.5646 16.9879C27.2953 18.419 23.6676 17.119 22.4116 16.9695C20.1189 16.6966 19.2678 17.4028 18.4764 17.7975C18.1155 17.9775 17.8518 18.3194 17.7269 18.4928C17.316 19.0635 19.587 18.0323 21.2324 17.7072C22.525 17.4518 23.7783 17.3384 25.1138 17.1262C26.4306 16.9169 27.7908 17.3183 29.6115 17.373C31.4404 17.4279 32.5509 16.4024 33.5954 15.9934C34.4745 15.6492 35.215 15.3492 36.0491 15.1522C37.1692 14.8876 37.8226 15.6333 38.4694 16.1395C39.182 16.6971 39.8103 17.2259 41.2115 18.0872C41.9923 18.5672 42.4769 19.2372 43.5671 19.9954C44.3574 20.545 45.6171 20.5929 46.829 20.905C47.6102 21.1061 48.0253 21.9155 48.4228 22.6775C48.808 23.4156 48.8198 24.1126 48.9492 24.4914C49.3542 25.6771 51.8862 24.9921 52.7885 25.3029C53.6355 25.5947 54.6657 26.1566 55.4607 26.4698C55.8119 26.6082 56.1795 26.7332 56.3583 26.9307C56.7912 27.4088 54.903 26.9127 53.9574 26.4126C52.867 25.836 52.1719 25.5464 51.3545 25.3218C50.2404 25.0158 48.7226 25.1667 47.6498 25.1828C47.554 25.1842 48.1066 25.1314 48.3195 25.2685C49.2519 25.8691 46.3559 27.3229 46.1674 27.5344C45.9461 27.7826 46.5462 26.7468 46.7796 26.438C46.8978 26.2817 47.0693 26.1815 47.0819 26.2792C47.1369 26.7083 46.04 28.1404 44.9166 29.7182C44.4139 30.4244 46.9191 26.6671 47.7979 25.8176C48.1545 25.4729 48.5823 25.2829 48.6869 25.1941C50.0628 24.0259 45.8356 28.4871 45.0924 29.1075C44.1377 29.9044 43.5979 30.4992 43.006 31.0877C42.4273 31.6632 41.6651 32.1132 40.9939 32.6295C40.3776 33.1034 40.1086 34.0275 39.7952 34.8128C39.4899 35.5776 38.8398 36.2239 38.2621 36.8452C37.9983 37.129 37.6084 37.3152 37.2556 37.477C36.6122 37.7722 35.8119 37.2217 33.7516 36.8393C32.1588 36.5436 29.0328 36.8141 26.1471 37.0184C23.2615 37.2226 20.6891 37.5947 19.1919 37.7867C17.3548 38.0222 16.7173 38.039 16.3969 38.0787C16.2018 38.1029 18.241 37.5073 22.854 36.9736C25.9856 36.6113 30.7729 36.7755 33.3617 36.8295C36.2125 36.889 36.6877 37.2121 36.9143 37.3297C37.4765 37.6217 35.3511 36.103 34.4549 35.6015C33.5405 35.0898 32.716 34.7927 32.0563 34.3525C31.3182 33.8601 30.4692 33.5545 29.6163 32.9183C28.8524 32.3486 28.105 31.9701 27.3966 31.9225C26.5783 31.8675 26.1091 32.9848 25.4042 33.5241C24.6274 34.1185 23.9291 34.797 23.2176 35.3723C22.4337 36.006 21.5724 36.8057 20.3207 37.6588C19.3437 38.3246 18.2552 38.8347 17.2371 39.7556C17.0115 39.9596 16.882 40.1097 16.8657 40.0981C16.3933 39.7628 18.6424 38.4134 19.8912 37.2538C21.6783 35.5945 23.6451 34.2718 24.2855 33.4575C24.9309 32.6367 25.6206 31.6888 26.3374 31.4389C27.0417 31.1932 27.9629 31.8176 29.4439 32.3526C33.1344 33.6859 35.0246 34.2282 36.4204 34.8554C37.2575 35.2316 37.5865 36.3473 38.2133 36.8326C38.5146 37.0659 38.9532 37.0468 39.1853 37.0005C39.8905 36.86 38.201 36.138 37.9176 35.927C36.7685 35.0717 37.6297 32.0455 37.5094 31.1846C37.3557 30.0839 37.1703 28.7141 36.9174 27.9244C36.5214 26.6876 36.5225 24.6216 36.1083 23.7454C36.0151 23.5483 35.8631 23.392 35.9428 23.2878C36.8532 22.097 39.1608 23.1781 40.6036 23.3404C44.8054 23.8129 45.642 23.722 45.9959 23.778C46.3237 23.8297 46.1378 22.9944 46.32 23.0496C47.4546 23.3933 47.8814 25.047 48.289 25.3527C48.4312 25.4594 48.5455 25.1988 48.5851 24.9192C48.6747 24.2874 48.5086 23.4196 48.4016 22.7991C48.3794 22.6704 48.4502 22.9145 48.5502 23.1972C48.6502 23.4799 48.7843 23.7924 48.5095 23.4645C47.474 22.229 46.7354 20.98 46.5756 20.8289C46.4057 20.6682 46.5666 21.6404 46.5751 22.1414C46.5799 22.4225 45.4597 21.577 44.409 20.8608C44.0789 20.6358 44.0104 21.0493 44.0336 21.3987C44.0568 21.748 44.1353 22.1121 44.0669 22.0662C43.6013 21.7546 43.3638 20.7741 43.0551 20.5112C42.9594 20.4297 42.9044 20.9265 42.928 21.2383C42.9517 21.5501 43.0344 21.7826 42.7043 21.4223C41.5608 20.1738 40.6427 18.8881 40.3494 18.7039C40.0747 18.5314 40.8609 20.3332 41.4288 21.7072C41.5269 21.9443 40.616 21.0876 39.8112 20.1407C39.7145 20.0269 40.4112 21.4323 40.7183 22.0774C41.9193 24.6011 37.568 17.8677 37.3624 17.8072C36.9859 17.6965 37.8628 19.6652 38.3742 20.9549C38.657 21.668 36.7238 19.1554 35.9118 18.3471C35.7103 18.1465 36.5245 20.061 37.3132 21.3576C37.4241 21.5399 36.1353 19.2334 35.6639 18.4322C35.4034 17.9893 36.4104 19.6173 37.6331 21.1405C37.8561 21.4183 37.1067 19.0822 36.3074 17.5609C36.2701 17.4898 36.9267 19.0012 37.589 20.3905C38.2751 21.8299 33.6249 17.3404 32.9073 16.9656C30.9797 15.9587 34.8068 23.6166 34.4234 23.5739C33.7458 23.4985 32.7194 21.6576 32.3502 21.2656C32.1404 21.0428 33.4541 22.8082 34.0132 23.3406C34.469 23.7745 32.4796 21.4322 31.3071 20.358C30.532 19.6479 34.9537 23.2103 36.2143 23.6397C37.2841 24.0042 34.818 20.5667 33.9438 19.4623C33.5987 19.0264 33.4371 18.8592 33.9749 19.3518C34.5128 19.8444 35.7506 21.006 35.6048 21.2314C34.5698 22.8312 31.3028 19.6038 29.9208 19.2092C29.5235 19.0957 29.7037 19.3882 30.0101 19.7162C30.7188 20.4748 31.2883 21.0599 31.3598 21.2777C31.4606 21.5848 30.3979 20.8404 30.2405 20.6233C30.0675 20.3847 31.4938 21.0907 31.9084 21.2896C32.1667 21.4135 30.5756 20.8776 28.5906 19.9943C27.9663 19.7164 28.1797 19.6307 28.6169 19.8591C29.054 20.0876 29.7237 20.5935 29.9663 20.8042C30.0505 20.8773 28.3686 19.8195 26.2712 18.4314C25.6172 17.9986 25.7196 18.2685 25.8702 18.456C26.5076 19.2496 27.8965 19.6452 29.2101 20.2754C29.3057 20.3213 28.9532 20.3307 29.1631 20.6C29.373 20.8693 30.1266 21.4419 30.4194 21.7036C30.5779 21.8453 29.812 21.5053 29.1876 21.0305C28.6299 20.6064 31.7173 21.5258 32.9945 21.5715C33.3304 21.5835 33.1918 20.8053 33.3789 20.4514C34.1455 19.002 36.5252 20.2171 36.8831 20.2239C37.0174 20.2265 36.9978 19.9465 37.1372 19.8966C38.2643 19.4936 39.5097 21.0984 40.992 21.9302C41.3316 22.1208 41.5524 22.2063 41.6557 22.1407C41.759 22.0752 41.7399 21.8518 41.8253 21.7064C41.9107 21.5609 42.1012 21.5003 42.3756 21.5281C42.6501 21.556 43.0028 21.6741 42.5444 21.0816C42.086 20.4892 40.8059 19.1825 40.7288 18.9515C39.6436 15.7012 44.9994 21.8271 46.2778 22.6041C46.7189 22.8722 47.1324 22.3617 47.7252 22.387C48.316 22.4122 48.7106 22.8078 48.9081 23.1596C49.1213 23.5394 48.9456 24.2076 48.7009 24.8413C48.1178 26.3517 46.3876 27.2276 46.2571 27.4361C46.1585 27.5936 46.6964 26.993 47.0247 26.6729C48.1459 25.5797 50.682 26.6376 51.8409 27.2686C54.4597 28.6945 55.1301 28.5245 55.3099 28.6379C55.8843 29.0002 53.2857 28.5765 52.1709 28.2294C50.7286 27.7803 49.9403 27.1744 49.2645 26.872C47.5975 26.1261 56.5958 29.4164 56.3498 28.8602C55.4846 26.9045 53.3027 26.0328 52.7801 25.7655C52.1803 25.4588 54.2337 26.6342 54.7547 26.943C56.0305 27.6991 50.7315 26.062 50.0419 25.6613C49.8713 25.5622 49.7057 25.4673 49.5877 25.3193C49.4697 25.1713 49.4046 24.9721 49.4675 24.8212C50.2021 23.0586 53.9944 24.4735 53.6633 24.3886C51.7722 23.9034 49.7357 23.8468 48.912 23.8499C48.8861 23.85 51.7027 24.3703 55.7588 25.1536C58.0558 25.5972 59.0564 26.6083 59.2895 26.9286C59.4594 27.1619 56.4724 25.32 52.881 22.6488C51.361 21.5184 50.9979 21.1856 50.6769 21.123C50.3686 21.0628 50.1395 21.6363 49.727 21.8865C49.1814 22.2174 48.4709 21.9214 48.1678 21.8321C47.9877 21.779 50.1773 22.1812 52.529 22.8703C53.2718 23.088 53.0698 23.1547 52.7175 23.1738C51.8618 23.2203 51.1601 23.1705 50.9359 23.2382C50.6777 23.3162 51.3918 24.0409 51.7254 24.4864C52.4374 25.437 48.4827 23.3872 48.1679 23.2832C47.7153 23.1337 50.3381 23.9044 50.87 23.9866C51.1574 24.0311 49.2811 23.3507 48.5608 23.3213C47.9059 23.2945 50.1039 23.3658 50.297 23.4484C50.474 23.5242 49.7403 23.3716 49.4799 23.0944C48.7384 22.3049 48.871 20.7356 48.5183 19.9179C48.3705 19.5755 48.4915 21.0007 48.5263 21.3708C48.5536 21.6597 48.0119 20.1189 47.6093 19.2784C47.5002 19.0507 48.0058 20.7154 48.3788 21.7368C48.7666 22.7984 47.4069 18.6293 47.2376 18.323C47.1599 18.1826 47.8193 20.2932 48.5043 22.1248C48.8578 23.0701 47.4626 19.2198 47.0133 18.3024C46.9433 18.1593 47.2772 20.1833 47.7219 22.251C47.9696 23.4025 46.1144 18.2788 46.0289 17.9168C45.9519 17.5908 46.8594 20.2596 47.7241 22.2559C47.8749 22.6038 47.5516 21.5356 47.3967 21.1718C47.3525 21.068 47.9046 23.0109 48.279 24.4566C48.3304 24.6552 47.153 22.8274 46.6642 22.1614C46.1754 21.4954 46.1685 21.8064 46.2958 22.2695C46.4231 22.7325 46.6848 23.3383 46.7427 23.5045C46.7961 23.6581 45.987 22.3767 45.2399 21.4276C45.0215 21.1501 45.0175 21.4089 45.1617 21.7644C45.3058 22.1199 45.5696 22.5952 45.6841 22.7296C45.7569 22.815 45.2508 21.4693 44.6106 20.2467C44.5379 20.108 45.1048 21.8767 45.4067 22.8565C45.4559 23.0161 44.5424 21.5532 44.1873 21.0373C43.8322 20.5214 43.8711 20.7571 44.0239 21.1833C44.1766 21.6096 44.4421 22.2193 44.3113 22.139C43.4113 21.5869 42.9176 20.2534 42.6277 20.0442C42.4288 19.9008 42.8022 21.4394 43.4161 23.0375C43.6484 23.6422 43.7242 23.8262 43.2033 23.2603C42.6823 22.6945 41.5635 21.3727 40.9265 20.8064C40.2896 20.24 40.1684 20.4692 40.3006 21.1378C40.4328 21.8063 40.822 22.9073 40.4713 22.6831C38.5797 21.4741 37.6174 18.9409 37.2304 18.6244C37.0143 18.4477 38.0433 20.8443 39.0221 22.7785C39.4803 23.6838 37.1306 20.1422 36.2418 19.247C36.0209 19.0244 36.5556 20.649 37.2176 21.72C37.6471 22.4147 35.9184 19.4663 35.1452 18.5718C34.8957 18.2832 34.7731 18.536 34.801 18.8471C34.8678 19.5926 35.5165 20.8854 35.7685 21.7688C36.1304 23.0374 33.8012 19.5603 33.3132 19.1838C33.1216 19.036 34.0538 20.586 34.6722 21.5705C36.0128 23.7051 31.1806 19.1608 30.6407 19.013C30.3726 18.9396 31.0533 20.3102 31.5689 21.3235C31.9175 22.0088 29.613 20.0471 28.971 19.2578C28.5894 18.7886 31.0361 19.6309 32.3671 19.7135C32.8189 19.7416 32.7952 19.2998 32.6162 18.8544C32.4372 18.4089 32.0982 17.8601 32.0215 17.6167C31.3486 15.481 37.0292 21.0634 37.3013 21.0912C38.6838 21.2326 36.1381 17.3114 36.0798 16.725C36.0541 16.4663 36.2127 16.2834 36.4546 16.2772C39.1088 16.2097 42.2502 19.3351 42.8141 19.4502C43.1491 19.5186 41.8742 17.9174 40.9115 16.9229C39.2175 15.1728 43.5869 22.089 43.5919 22.3218C43.6261 23.9175 39.3495 19.2678 38.0331 18.7877C36.1959 18.1176 41.1889 23.6174 41.4278 23.7264C41.8454 23.9169 40.1493 20.3196 38.7535 16.6683C38.4049 15.7564 43.8016 18.7583 45.6814 19.3269C45.95 19.4081 45.3799 18.7669 45.8843 19.3333C46.3886 19.8996 47.5909 21.3192 48.0942 21.8842C48.5975 22.4493 48.3652 22.1169 48.1135 21.7767C47.8617 21.4365 47.5975 21.0986 47.5155 21.0657C47.3027 20.98 47.8174 21.8595 48.0171 22.1381C48.1284 22.2935 47.2772 20.8648 46.7507 20.0072C46.1155 18.9724 48.3775 22.0112 48.5552 22.081C49.5414 22.4683 47.5631 19.7661 47.4857 19.5916C47.4553 19.5231 47.7513 20.0001 47.8045 20.0799C48.1269 20.5637 47.1169 19.1028 47.012 18.9217C46.6199 18.2448 48.1021 20.5377 48.0947 21.6676C48.0921 22.0701 46.6281 21.0216 45.3436 20.031C44.6161 19.47 45.857 21.6013 45.8094 21.6095C45.5798 21.6488 45.2463 20.8156 45.0099 20.6555C44.7443 20.4757 44.7934 21.5411 44.7207 21.9284C44.6802 22.1445 44.0191 21.3052 43.7533 21.1178C43.4874 20.9305 43.4801 21.1406 43.6443 21.5929C43.8085 22.0451 44.1444 22.7332 44.1908 23.0132C44.2338 23.2732 43.5102 22.7812 43.4901 22.8961C43.4235 23.2773 44.286 24.0856 44.469 24.3283C45.2991 25.4292 42.3669 22.0113 42.0147 21.8753C41.7665 21.7794 42.6247 23.3301 43.041 24.3037C43.5542 25.504 40.9033 22.6067 40.6499 22.5072C40.2918 22.3666 41.5418 23.5267 42.1146 24.0114C42.1875 24.0731 41.4545 23.3014 40.8512 22.8505C40.6209 22.6784 41.3225 23.8557 41.3731 24.023C41.4568 24.2993 40.4761 23.1417 40.1901 22.8981C40.0713 22.7969 40.792 23.8287 41.6648 24.7508C41.7769 24.8693 41.2425 23.9594 40.6011 23.2887C40.5032 23.1863 40.9282 24.0289 40.977 24.1893C41.0502 24.4298 40.1866 23.4128 39.9627 23.3035C39.6985 23.1745 40.3504 24.423 40.4824 24.727C40.8283 25.5233 39.0138 23.3739 38.5488 23.0701C37.4403 22.3459 40.7666 25.9324 40.9775 26.053C41.3151 26.2462 39.5603 24.1122 38.1425 22.5013C38.0266 22.3696 38.8206 23.6503 39.0523 23.9626C39.5993 24.7 37.7322 22.5422 37.5431 22.4467C37.2666 22.307 38.3164 23.5936 38.6169 24.0473C39.4496 25.3048 36.4156 22.0857 36.2097 22.0172C35.9889 21.9438 37.283 23.3738 38.5404 24.6715C38.9653 25.11 36.9662 22.94 36.7803 22.8264C36.4206 22.6067 37.8214 24.0287 38.5682 24.7293C39.1609 25.2855 37.1482 22.893 37.0557 22.9315C36.7192 23.0715 38.022 24.1749 38.2466 24.4517C38.346 24.5742 37.3451 23.4843 36.7041 22.9833C36.5234 22.8421 37.299 24.155 37.9517 24.943C38.529 25.64 36.3149 22.8761 35.8731 22.5051C35.7862 22.4321 36.5989 23.2707 36.8339 23.4901C36.8642 23.5184 36.1943 22.8436 35.745 22.5356C34.2261 21.4945 38.5718 24.6389 39.6155 24.7701C40.0343 24.8228 39.4857 23.204 39.1119 21.9583C38.983 21.5287 41.3744 23.0071 43.2202 24.1687C44.9517 25.2583 39.3538 19.1388 39.7675 19.1476C43.5192 19.2275 46.0642 23.0422 46.9796 23.2921C47.265 23.37 46.7673 22.3893 46.6962 22.0709C46.6126 21.6965 48.0343 23.0703 48.0848 23.0195C49.0351 22.0627 46.0305 20.8867 45.8216 20.7806C45.636 20.6862 46.8662 22.5955 47.5503 23.894C48.6819 26.0418 44.3134 20.3284 44.6256 20.862C45.0619 21.6078 46.3364 23.0979 46.5865 23.3382C47.2872 24.0112 44.9183 20.9177 44.3474 20.422C44.2333 20.323 44.9186 21.6033 45.22 22.2562C45.9705 23.8821 42.726 19.6954 42.4417 19.6299C41.856 19.495 43.7137 22.3961 44.1321 23.9962C45.8259 30.4746 37.5784 19.3597 37.3137 19.4089C36.8642 19.4924 38.661 21.2797 39.5445 22.2459C40.9044 23.7331 35.8443 19.3808 34.8365 18.9674C34.434 18.8023 35.4363 20.7848 36.2351 22.121C36.4736 22.5198 36.2374 22.4421 35.8322 22.1793C34.8122 21.5177 33.6715 20.7766 32.8424 20.4518C32.5614 20.3417 32.5054 20.6138 32.268 20.5796C32.0307 20.5453 31.5988 20.2657 31.4022 20.2213C31.2055 20.177 31.2571 20.3764 31.4264 20.6001C31.5956 20.8238 31.8808 21.0658 31.7708 20.9958C30.3887 20.116 29.5172 19.6613 28.5817 19.3805C27.8303 19.1549 26.9789 18.9164 26.3829 18.4119C25.6009 17.7499 23.8823 17.7204 22.6162 17.9354C21.1089 18.1912 20.5191 17.9058 20.1457 18.1796C18.0792 19.6954 18.5012 24.9046 17.9376 26.6995C17.8882 26.8567 17.7564 26.6279 17.7203 26.3068C17.5503 24.7934 19.0252 21.0478 20.0059 18.3147C20.2329 17.682 19.4714 20.0494 18.8525 20.4918C18.7284 20.5805 18.5871 20.3006 18.5251 20.0926C18.3948 19.6558 18.5512 19.0798 18.7174 18.507C18.7953 18.2387 18.8552 18.0137 18.8843 18.3043C19.1304 20.7623 18.4173 22.8621 18.107 23.8274C17.596 25.4171 18.1714 18.5585 18.1688 17.4828C18.1667 16.5902 18.1641 23.2961 18.2269 24.3455C18.2589 24.8802 19.3584 21.5729 20.8129 18.9916C21.028 18.6099 20.8523 20.524 20.7254 20.8412C20.6514 21.0262 21.7074 18.2535 23.2593 15.0989C23.7615 14.0781 23.8105 14.3138 23.5181 15.061C22.7104 17.1247 21.9153 18.6802 21.8445 19.0286C21.7021 19.7301 22.8839 18.0338 23.1268 17.9743C23.3629 17.9165 23.1116 18.6761 23.1644 18.7009C23.4034 18.8131 23.7796 17.7841 24.02 17.5858C24.2454 17.3999 23.9387 18.9764 23.4149 20.2852C23.3419 20.4677 23.612 19.7103 24.0423 19.1033C24.1565 18.9421 24.1911 19.2274 24.2702 19.1717C24.6488 18.9053 25.0323 17.8053 25.6597 17.0387C25.874 16.7768 26.0684 17.0147 26.106 17.2494C26.1884 17.7641 25.8579 18.3955 25.7127 18.7818C25.6925 18.8354 25.8053 18.6093 25.8418 18.6158C25.8784 18.6223 25.8413 18.8705 26.1506 18.7043C27.2136 18.1328 27.9993 17.2539 28.3099 17.2322C28.9666 17.1866 28.2973 18.2675 28.3862 18.4902C28.5049 18.7876 27.9897 19.5269 27.8468 19.7699C27.7927 19.8619 28.0724 18.9575 28.4365 18.2484C28.4504 18.2215 27.9859 18.8557 27.6123 19.3639C27.5198 19.4896 28.7022 18.4827 29.7826 17.7C30.2057 17.3935 29.2094 18.8912 28.9841 19.3659C28.8689 19.6086 28.7918 19.877 29.0769 19.6075C29.362 19.338 30.0218 18.5282 30.2611 18.1836C30.7728 17.4467 28.189 20.2735 27.8115 20.8383C26.0151 23.5261 34.5339 14.317 34.629 14.3607C35.8895 14.9403 32.6187 16.4299 32.4264 16.8408C32.3028 17.1049 32.749 17.1656 32.7709 17.2625C33.1835 19.0866 35.2948 15.6343 35.4437 15.569C35.7374 15.4402 34.2177 16.9748 33.3888 18.2284C33.0488 18.7426 34.6692 17.2041 34.8238 17.192C35.3166 17.1535 34.0076 18.3098 33.837 18.4628C33.0782 19.1432 35.4181 16.9545 35.7438 16.793C35.9671 16.6823 35.468 17.5105 35.592 17.5521C35.8984 17.655 36.629 16.8934 37.1051 16.5986C37.5812 16.3039 37.7627 16.2357 37.2478 16.869C36.7328 17.5024 35.5159 18.8393 35.0266 19.4419C34.5372 20.0445 34.8124 19.8723 35.3345 19.4807C35.8565 19.0891 36.6173 18.4834 36.8609 18.2007C37.0051 18.0334 35.4823 18.5536 34.0287 19.2523C33.6032 19.4569 33.7791 19.2685 33.9187 19.0828C34.1855 18.728 34.3079 18.2035 34.293 17.7491C34.2868 17.5594 33.9775 17.5456 33.7118 17.6435C33.4462 17.7413 33.1552 17.9749 32.8344 18.3263C32.5135 18.6777 32.1714 19.1397 33.1839 18.7953C36.6764 17.6076 39.2198 16.0246 39.4399 15.9889C39.621 15.9595 39.0172 16.4012 38.9108 16.6955C38.7903 17.0293 40.2284 16.9083 41.5283 16.7392C41.8532 16.6969 40.8869 17.8142 39.9923 18.7194C39.725 18.9898 40.1339 19.1526 40.7118 19.1076C42.1121 18.9983 42.4542 18.7929 42.9222 18.9755C43.3888 19.1576 43.7791 19.3995 44.2371 19.6871C44.4596 19.8268 43.8794 20.2901 43.6286 20.5757C43.0105 21.2796 41.8886 20.208 40.6885 20.0327C39.7542 19.8962 38.6504 19.1383 37.6177 18.8006C35.992 18.2689 34.4972 18.028 32.5944 17.51C28.3646 16.3585 27.3319 16.9128 26.43 16.7931C25.3881 16.6548 23.4757 16.6614 21.9291 16.9615C20.8548 17.17 19.9253 18.6157 19.1419 19.6723C17.4885 21.9023 17.9394 23.6423 17.8484 24.9234C17.7633 26.1223 17.518 26.9635 17.0563 27.7202C16.3946 28.8048 15.3443 29.5544 14.7588 30.199C14.6093 30.3636 14.4152 30.49 14.4509 30.4838C14.7759 30.4275 15.1262 29.9762 15.3389 29.5811C15.7981 28.7282 15.8276 27.7789 16.6986 26.5671C17.278 25.761 17.2745 24.7258 17.2876 22.5793C17.291 22.0319 17.2615 21.6227 17.3464 21.342C17.6754 20.2535 19.1824 19.9572 20.2702 19.561C21.584 19.0825 22.444 18.4533 24.5639 17.6796C26.3377 17.0322 28.052 17.399 30.8173 18.7294C32.186 19.3879 32.4634 20.7317 34.1267 21.5115C35.0663 21.952 35.2377 23.1217 35.893 24.7646C36.4164 26.0767 36.7624 27.1063 36.9746 27.5673C37.6476 29.0296 33.9518 24.1602 33.2588 23.1476C33.1876 23.0435 33.7599 24.5084 34.512 25.8702C34.6034 26.0356 34.4555 24.8639 34.5593 24.5694C35.0452 23.1919 36.173 26.8175 36.0129 26.3762C35.2513 24.2768 34.4221 22.6687 34.5728 23.0167C34.8075 23.5587 35.29 24.8801 35.5115 25.2958C35.733 25.7114 35.6602 25.1909 35.6132 25.135C35.382 24.86 35.714 26.8528 35.8834 27.8278C35.8946 27.8927 35.6418 27.0791 35.6045 27.7273C35.3492 32.1574 36.1988 32.1478 36.6328 33.6404C36.6878 33.8294 36.7377 32.6236 36.7281 32.0362C36.7265 31.9365 37.0954 32.7078 37.1987 32.8966C37.2508 32.9919 37.0116 32.1325 36.9437 31.9969C36.8459 31.8017 37.2501 32.9973 37.1347 32.3647C36.6359 29.6306 35.997 27.3003 36.035 27.5891C36.2647 29.3341 36.6783 31.3854 36.9735 32.4577C37.0546 32.7523 37.061 32.5161 36.9643 32.0657C36.8676 31.6154 36.6842 30.9519 36.6447 31.5742C36.6051 32.1966 36.715 34.1249 36.761 34.1342C36.8069 34.1436 36.7857 32.1756 36.8389 32.1942C38.6394 32.8257 37.1461 36.1564 37.1067 35.6415C37.0862 35.374 37.0139 35.1004 37.0976 35.073C37.1814 35.0455 37.4103 35.2742 37.4669 35.3167C37.5235 35.3593 37.4009 35.2087 37.4029 35.337C37.4112 35.8963 37.9028 36.8126 38.163 37.4215C38.5931 38.4283 36.4175 35.7611 35.6918 35.6435C35.6095 35.6301 36.1085 35.8224 36.2754 35.9268C36.3888 35.9978 36.3171 36.1383 36.2721 36.4627C36.0666 37.9429 34.1597 38.0177 34.264 38.1842C34.4201 38.4335 35.2401 38.2436 35.3522 38.3325C35.4643 38.4214 34.9598 38.597 34.837 38.7297C34.7142 38.8623 34.9883 38.9468 35.2675 38.9628C35.8228 38.9947 36.3398 38.7396 36.5892 38.5391C36.7566 38.4045 35.4858 38.7139 34.5626 39.1533C34.3152 39.2711 34.6065 39.3604 34.9318 39.298C35.6505 39.16 36.3087 38.7103 36.6162 38.457C36.8264 38.2838 35.0747 38.9567 33.7356 39.668C33.601 39.7395 34.9107 39.4323 35.9048 39.0795C36.2906 38.9425 34.9135 39.9342 35.0883 39.9411C35.5215 39.9582 36.5145 39.1729 36.9537 38.8469C37.3113 38.5814 35.5237 38.8973 33.4386 39.6546C32.8395 39.8722 33.2414 39.958 33.5341 39.9658C33.8268 39.9736 34.0159 39.9538 33.7004 39.9378C31.4943 39.8261 30.6218 39.3832 25.8754 38.5411C25.0288 38.3909 25.2296 38.3614 25.4841 38.3367C25.7387 38.312 26.0414 38.2903 25.6567 38.1328C24.2296 37.5485 22.8068 37.3445 23.2014 37.2886C25.4542 36.97 26.9459 37.2453 26.3963 37.2107C26.029 37.1876 25.4802 37.1976 26.2015 37.3985C28.9004 38.1504 32.0531 38.4336 32.9679 38.4577C33.1075 38.4614 31.4632 38.4659 31.5375 38.6746C31.6118 38.8833 33.167 39.3006 33.3386 39.5243C34.057 40.461 30.1424 39.6376 29.4923 39.5146C29.332 39.4843 30.8123 39.7345 31.3197 39.8141C31.6461 39.8653 30.7654 39.4366 29.8195 38.8318C29.5612 38.6666 32.3095 38.6943 34.7946 38.9432C34.9961 38.9634 33.0374 38.5305 32.8196 38.4048C31.6114 37.7075 36.0601 38.5972 35.775 38.6524C33.9374 39.0081 31.7458 38.4529 30.9978 38.2368C30.0713 37.9691 33.3458 38.2551 33.386 38.3382C34.1956 40.0094 28.5985 37.9994 28.0345 37.6842C23.2803 35.0272 37.1356 38.0001 36.5114 38.0084C36.3555 38.0104 36.6218 38.3692 36.6605 38.558C36.6992 38.7468 36.5266 38.8472 36.5371 38.8707C36.9992 39.9066 39.1091 37.9566 39.5813 37.3353C39.7975 37.0508 39.5102 36.5788 39.7325 36.1869C40.196 35.3698 41.6063 33.8117 42.6061 32.368C43.1818 31.5367 43.6508 30.689 44.1966 29.6842C44.7823 28.6062 45.6693 28.4731 46.4755 28.211C47.2536 27.958 47.998 27.5863 48.5768 27.3221C48.6125 27.3057 48.2746 27.3257 48.0529 27.3889C47.8312 27.4521 47.6692 27.5454 47.9803 27.6075C48.2914 27.6695 49.0804 27.6975 49.0853 27.7969C49.0902 27.8964 48.287 28.0665 47.9811 28.2064C47.7609 28.3071 48.9048 28.5583 49.7412 28.5643C50.4227 28.5692 47.8148 28.7578 47.2021 29.0399C46.9787 29.1427 48.4509 29.314 49.2778 29.3057C49.3106 29.3053 48.5546 29.2806 48.7991 29.2806C50.3105 29.2806 52.3628 29.3295 53.374 29.3014C53.9894 29.2844 51.9378 28.0698 51.144 27.2895C50.4039 26.562 50.0017 25.7376 49.6338 24.5125C49.0376 22.5277 48.5032 21.5507 48.2299 20.6785C47.713 19.029 49.1223 16.9219 49.6332 15.9792C49.8083 15.6561 50.0307 15.1943 49.6331 15.4335C46.2406 17.4749 44.3711 19.1895 42.4003 19.657C38.9604 20.4731 38.0349 19.4952 36.4442 18.9708C33.3645 17.9556 32.2106 18.2897 32.0219 18.1017C31.3573 17.4395 34.3161 17.3814 35.5413 16.8637C36.1811 16.5934 36.7739 16.3097 37.0529 16.1344C37.1229 16.0904 36.8534 15.9688 36.5775 15.9643C35.9748 15.9545 34.127 16.7795 31.936 17.6799C31.2753 17.9513 31.4788 17.6763 31.78 17.4982C32.4244 17.1171 33.2518 17.0318 33.6974 16.916C35.1564 16.5369 30.0876 17.3763 29.7869 17.4893C29.7588 17.4999 30.1249 17.2438 29.6923 17.3184C29.2596 17.3931 28.0533 17.7623 27.4792 17.8526C26.905 17.9429 26.9995 17.743 27.1214 17.5582C27.6271 16.7917 28.3418 16.176 28.8859 15.5764C29.3994 15.0104 29.7834 14.3191 30.311 13.7261C30.8956 13.069 31.4296 12.3684 31.936 11.6466C32.4545 10.9075 33.1966 10.3945 33.8398 9.80131C34.5081 9.18503 34.7763 8.58703 35.0446 8.29754C35.1857 8.14532 35.4067 8.07365 35.0596 8.01564C32.5854 7.60218 31.2044 7.53553 29.9302 7.34501C27.5207 6.98476 26.112 7.74042 24.971 7.96278C24.6545 8.02446 24.2011 7.97989 24.0546 7.93572C23.9082 7.89155 24.0777 7.80349 24.2589 7.75746C25.7901 7.36871 29.6321 7.12571 32.2621 6.95567C33.1071 6.90104 32.9635 7.08484 32.3753 7.15061C29.2428 7.50087 27.7119 6.85785 27.0595 6.71591C26.3441 6.56025 30.5001 7.00109 32.2326 7.61818C33.161 7.94887 33.9585 8.24218 34.5495 8.06821C35.095 7.90762 33.2961 8.44425 32.5353 8.97721C32.3395 9.11434 32.1725 9.27528 32.1826 9.31206C32.358 9.95032 33.4905 8.51623 34.1089 8.14632C34.4721 7.92904 33.1142 8.92688 32.4249 9.72874C31.8078 10.4465 31.2634 11.0153 30.8182 11.3725C30.633 11.5211 32.4409 10.7628 34.234 9.99635C36.3845 9.07716 29.3495 16.138 29.3247 16.3746C29.3155 16.4618 29.5893 16.365 30.9667 14.9582C32.3441 13.5514 34.8873 10.8075 36.3555 9.29189C38.5029 7.07519 39.4161 6.99026 39.8425 6.85151C41.6818 6.2529 34.3527 8.63204 33.3487 8.64981C33.0898 8.6544 35.2082 7.134 37.8269 5.56728C38.4765 5.17863 35.1965 5.11771 31.8779 5.12022C30.0361 5.12161 36.6492 4.37915 36.1072 4.73154C32.1918 7.27714 28.5977 6.33121 29.3866 5.97649C30.772 5.35358 33.1013 5.51766 34.0619 5.36656C36.4914 4.98437 29.4227 4.44437 29.3098 4.06002C29.1965 3.67426 32.4979 3.44677 37.6534 3.54014C39.6817 3.57687 40.5109 3.80127 38.7235 3.9156C36.936 4.02993 32.5055 4.08089 30.1272 4.08166C27.5569 4.0825 27.1326 3.89927 26.9568 3.75342C26.6346 3.48603 30.1277 3.58514 34.0333 3.60905C37.5553 3.63061 40.2185 5.08576 41.074 5.49838C41.8584 5.87669 35.7023 5.33698 33.9876 4.90341C33.381 4.75005 32.865 4.35224 32.3985 3.98032C32.1926 3.81614 32.1154 3.61022 32.1831 3.46933C32.3552 3.11092 32.9174 3.12441 33.1171 3.08367C33.6993 2.9649 31.7907 2.81294 31.0593 2.87172C30.3369 2.92977 29.8818 4.31591 29.3513 5.25972C28.9043 6.05485 28.2771 6.57768 27.6026 7.09582C27.4385 7.2219 27.2903 7.35388 27.1773 7.31722C26.4846 7.09252 27.1829 5.06612 27.2509 3.54967C27.3103 2.22703 26.7039 1.44796 26.555 1.14929C26.2324 0.502578 24.5708 1.19468 23.579 1.5827C22.7227 1.91771 22.1154 2.5468 21.3107 2.89354C20.5202 3.23411 19.6104 3.61673 18.7958 3.95836C18.4011 4.12391 17.9694 4.13884 17.7606 4.14604C17.0724 4.16977 22.8043 2.99929 26.3771 2.59974C26.4392 2.5928 25.4261 2.50421 24.3685 2.44789C23.5547 2.40455 26.8671 1.58677 27.5779 1.56217C27.6765 1.55876 27.0076 1.69805 26.7194 1.64566C26.6605 1.63495 26.8717 1.48639 27.0359 1.50621C27.2001 1.52603 27.3347 1.67524 27.4036 2.09732C27.4725 2.5194 27.4715 3.20982 27.4329 3.46946C27.3942 3.72909 27.3178 3.53702 27.3868 3.52731C28.2419 3.407 28.2315 5.08464 28.2366 5.34599C28.2536 6.20279 28.195 3.37817 28.361 3.06039C28.4338 2.92095 28.689 3.04758 28.8804 3.44614C29.0719 3.8447 29.2444 4.56805 29.2893 4.84033C29.421 5.64076 29.2667 2.57775 29.4502 2.2102C29.5594 1.99141 29.4069 1.59412 29.3371 1.9779C29.0629 3.48585 28.9945 5.51355 28.6911 6.65688C28.599 7.00369 28.4079 6.77764 28.2443 6.2194C28.0806 5.66116 27.8927 4.75227 27.8642 4.38493C27.8357 4.01759 27.9722 4.21933 28.1087 4.44856C28.2453 4.6778 28.3778 4.92841 28.4607 4.95233C29.124 5.14351 28.3917 3.03037 28.4104 2.44167C28.4145 2.31263 28.7142 3.59355 28.8689 4.85162C28.8914 5.0348 28.6447 4.16736 28.5298 3.32618C28.5 3.1077 29.182 4.7794 29.7729 6.02671C30.1602 6.84424 29.2343 3.14817 29.433 2.72791C29.8858 1.77044 30.6673 4.43995 30.7368 4.45774C30.8861 4.49593 30.419 3.81176 30.2701 3.72476C30.0173 3.57703 30.0533 5.16478 30.0056 5.72612C29.9805 6.02288 29.8647 3.96507 29.8203 3.61604C29.7616 3.15386 29.8406 5.1322 29.8912 5.25955C30.0645 5.69574 29.6486 3.95141 29.4201 3.43722C29.3736 3.33263 29.3511 3.63985 29.3403 3.5702C29.1469 2.33004 29.0944 1.48142 28.9769 1.09712C28.9202 0.91161 28.7282 0.8184 28.5392 0.758699C28.3502 0.698998 28.1341 0.694294 27.9752 0.808683C27.2627 1.32171 26.834 1.96834 26.5473 2.08924C26.2164 2.22875 27.3945 2.25089 27.7262 2.50844C28.1166 2.81155 28.5028 3.80526 28.7316 4.92729C28.7858 5.1931 28.8194 4.80934 28.8577 4.85643C28.896 4.90353 28.9648 5.38463 29.008 5.45098C29.1681 5.69733 29.0164 3.77113 29.0236 2.60092C29.0247 2.42079 29.3101 3.1578 29.3934 3.3175C29.4768 3.4772 29.4235 3.05699 29.4858 2.8852C29.5481 2.71342 29.7275 2.80279 29.8844 3.02862C30.0412 3.25445 30.1702 3.61404 30.1467 3.76243C30.1232 3.91082 29.9433 3.83713 29.7631 3.47957C29.5828 3.122 29.4077 2.4828 29.3503 2.30535C29.0753 1.45414 29.8112 4.33635 29.7663 4.62533C29.6026 5.6789 29.0754 2.30462 28.9535 1.7817C28.8606 1.38357 28.2356 1.27866 27.9119 0.972281C27.7108 0.782009 27.2898 1.33866 27.0325 1.33809C26.9809 1.33797 27.4984 1.2795 27.6223 1.27792C27.7462 1.27634 27.5654 1.31842 27.6549 1.38112C28.0546 1.66138 28.7181 1.71051 29.1354 1.94108C29.5009 2.14308 29.6146 2.63348 29.6602 3.14908C29.565 4.38795 29.1623 5.61496 29.09 7.56502C29.1373 7.9787 29.246 8.14804 29.6037 8.62343" stroke="black" stroke-width="1.435" stroke-linecap="round"/>
</svg>
