<svg width="878" height="48" viewBox="0 0 878 48" fill="none" xmlns="http://www.w3.org/2000/svg">
<path d="M1.11861 15V4.81818H4.74787C5.54001 4.81818 6.19626 4.96236 6.71662 5.25071C7.23698 5.53906 7.62642 5.93347 7.88494 6.43395C8.14347 6.93111 8.27273 7.49124 8.27273 8.11435C8.27273 8.74077 8.14181 9.30421 7.87997 9.80469C7.62145 10.3018 7.23035 10.6963 6.70668 10.9879C6.18632 11.2763 5.53172 11.4205 4.7429 11.4205H2.24716V10.1179H4.60369C5.10417 10.1179 5.51018 10.0317 5.82173 9.85938C6.13329 9.68371 6.36198 9.44508 6.50781 9.14347C6.65365 8.84186 6.72656 8.49882 6.72656 8.11435C6.72656 7.72988 6.65365 7.38849 6.50781 7.0902C6.36198 6.7919 6.13163 6.55824 5.81676 6.3892C5.50521 6.22017 5.09422 6.13565 4.58381 6.13565H2.65483V15H1.11861ZM12.1083 15.169C11.6244 15.169 11.1869 15.0795 10.7958 14.9006C10.4047 14.7183 10.0948 14.4548 9.86612 14.1101C9.64074 13.7654 9.52805 13.3428 9.52805 12.8423C9.52805 12.4115 9.61091 12.0568 9.77663 11.7784C9.94235 11.5 10.1661 11.2796 10.4478 11.1172C10.7295 10.9548 11.0444 10.8321 11.3924 10.7493C11.7404 10.6664 12.0951 10.6035 12.4563 10.5604C12.9137 10.5073 13.2849 10.4643 13.57 10.4311C13.855 10.3946 14.0621 10.3366 14.1914 10.2571C14.3207 10.1776 14.3853 10.0483 14.3853 9.86932V9.83452C14.3853 9.40033 14.2627 9.06392 14.0174 8.82528C13.7755 8.58665 13.4142 8.46733 12.9336 8.46733C12.4331 8.46733 12.0387 8.57836 11.7504 8.80043C11.4653 9.01918 11.2681 9.26278 11.1587 9.53125L9.76172 9.21307C9.92744 8.74905 10.1694 8.37453 10.4876 8.08949C10.8091 7.80114 11.1786 7.59233 11.5962 7.46307C12.0138 7.33049 12.453 7.2642 12.9137 7.2642C13.2186 7.2642 13.5418 7.30066 13.8832 7.37358C14.2279 7.44318 14.5494 7.57244 14.8477 7.76136C15.1493 7.95028 15.3962 8.22041 15.5884 8.57173C15.7807 8.91974 15.8768 9.37216 15.8768 9.92898V15H14.4251V13.956H14.3654C14.2693 14.1482 14.1251 14.3371 13.9329 14.5227C13.7406 14.7083 13.4937 14.8625 13.1921 14.9851C12.8905 15.1077 12.5292 15.169 12.1083 15.169ZM12.4315 13.9759C12.8424 13.9759 13.1938 13.8946 13.4854 13.7322C13.7804 13.5698 14.0041 13.3577 14.1566 13.0959C14.3124 12.8307 14.3903 12.5473 14.3903 12.2457V11.2614C14.3372 11.3144 14.2345 11.3641 14.082 11.4105C13.9329 11.4536 13.7622 11.4917 13.57 11.5249C13.3777 11.5547 13.1905 11.5829 13.0082 11.6094C12.8259 11.6326 12.6734 11.6525 12.5508 11.669C12.2624 11.7055 11.9989 11.7668 11.7603 11.853C11.525 11.9392 11.3361 12.0634 11.1935 12.2259C11.0543 12.3849 10.9847 12.5971 10.9847 12.8622C10.9847 13.2301 11.1206 13.5085 11.3924 13.6974C11.6642 13.883 12.0105 13.9759 12.4315 13.9759ZM18.5229 17.8636C18.3008 17.8636 18.0987 17.8454 17.9164 17.8089C17.7341 17.7758 17.5982 17.7393 17.5087 17.6996L17.8667 16.4815C18.1384 16.5545 18.3804 16.5859 18.5925 16.576C18.8046 16.5661 18.9919 16.4865 19.1543 16.3374C19.32 16.1882 19.4658 15.9446 19.5918 15.6065L19.7757 15.0994L16.9817 7.36364H18.5726L20.5066 13.2898H20.5861L22.5201 7.36364H24.1159L20.9689 16.0192C20.8231 16.4169 20.6375 16.7533 20.4121 17.0284C20.1867 17.3068 19.9183 17.5156 19.6067 17.6548C19.2952 17.794 18.9339 17.8636 18.5229 17.8636ZM25.513 15V7.36364H26.9398V8.60653H27.0343C27.1934 8.18561 27.4535 7.85748 27.8148 7.62216C28.1761 7.38352 28.6086 7.2642 29.1124 7.2642C29.6228 7.2642 30.0504 7.38352 30.3951 7.62216C30.7431 7.8608 30.9999 8.18892 31.1657 8.60653H31.2452C31.4275 8.19886 31.7175 7.87405 32.1152 7.6321C32.513 7.38684 32.9869 7.2642 33.5371 7.2642C34.2298 7.2642 34.7949 7.4813 35.2324 7.91548C35.6732 8.34967 35.8936 9.00426 35.8936 9.87926V15H34.4071V10.0185C34.4071 9.50142 34.2663 9.12689 33.9846 8.89489C33.7028 8.66288 33.3664 8.54688 32.9753 8.54688C32.4914 8.54688 32.1152 8.69602 31.8468 8.99432C31.5783 9.2893 31.4441 9.6688 31.4441 10.1328V15H29.9625V9.92401C29.9625 9.50971 29.8333 9.17661 29.5748 8.92472C29.3162 8.67282 28.9798 8.54688 28.5655 8.54688C28.2838 8.54688 28.0236 8.62145 27.785 8.7706C27.5497 8.91643 27.3591 9.12026 27.2132 9.3821C27.0707 9.64394 26.9995 9.94721 26.9995 10.2919V15H25.513ZM41.1772 15.1541C40.4248 15.1541 39.7769 14.9934 39.2333 14.6719C38.6931 14.3471 38.2754 13.8913 37.9805 13.3047C37.6888 12.7147 37.543 12.0237 37.543 11.2315C37.543 10.4493 37.6888 9.75994 37.9805 9.16335C38.2754 8.56676 38.6864 8.10109 39.2134 7.76633C39.7437 7.43158 40.3635 7.2642 41.0728 7.2642C41.5037 7.2642 41.9213 7.33546 42.3256 7.47798C42.73 7.6205 43.0929 7.84422 43.4144 8.14915C43.7359 8.45407 43.9895 8.85014 44.1751 9.33736C44.3607 9.82126 44.4535 10.4096 44.4535 11.1023V11.6293H38.3832V10.5156H42.9968C42.9968 10.1245 42.9173 9.77817 42.7582 9.47656C42.5991 9.17164 42.3754 8.93134 42.087 8.75568C41.802 8.58002 41.4672 8.49219 41.0827 8.49219C40.6651 8.49219 40.3005 8.59493 39.989 8.80043C39.6808 9.0026 39.4421 9.26776 39.2731 9.59588C39.1074 9.92069 39.0245 10.2737 39.0245 10.6548V11.5249C39.0245 12.0353 39.114 12.4695 39.293 12.8274C39.4753 13.1854 39.7288 13.4588 40.0536 13.6477C40.3784 13.8333 40.7579 13.9261 41.1921 13.9261C41.4738 13.9261 41.7307 13.8864 41.9627 13.8068C42.1947 13.724 42.3952 13.6013 42.5643 13.4389C42.7333 13.2765 42.8626 13.076 42.9521 12.8374L44.359 13.0909C44.2463 13.5052 44.0442 13.8681 43.7525 14.1797C43.4641 14.4879 43.1012 14.7282 42.6637 14.9006C42.2295 15.0696 41.734 15.1541 41.1772 15.1541ZM47.5893 10.4659V15H46.1028V7.36364H47.5297V8.60653H47.6241C47.7998 8.20218 48.0749 7.87737 48.4494 7.6321C48.8272 7.38684 49.3029 7.2642 49.8762 7.2642C50.3966 7.2642 50.8523 7.37358 51.2434 7.59233C51.6345 7.80777 51.9378 8.12926 52.1532 8.55682C52.3687 8.98437 52.4764 9.51302 52.4764 10.1428V15H50.9899V10.3217C50.9899 9.76823 50.8457 9.3357 50.5574 9.02415C50.269 8.70928 49.8729 8.55185 49.3691 8.55185C49.0244 8.55185 48.7179 8.62642 48.4494 8.77557C48.1842 8.92472 47.9738 9.14347 47.818 9.43182C47.6655 9.71686 47.5893 10.0616 47.5893 10.4659ZM58.0346 7.36364V8.55682H53.8635V7.36364H58.0346ZM54.9821 5.53409H56.4686V12.7578C56.4686 13.0462 56.5117 13.2633 56.5978 13.4091C56.684 13.5516 56.795 13.6494 56.9309 13.7024C57.0701 13.7521 57.2209 13.777 57.3833 13.777C57.5027 13.777 57.6071 13.7687 57.6966 13.7521C57.786 13.7356 57.8556 13.7223 57.9054 13.7124L58.1738 14.9403C58.0877 14.9735 57.965 15.0066 57.8059 15.0398C57.6468 15.0762 57.448 15.0961 57.2093 15.0994C56.8182 15.1061 56.4537 15.0365 56.1156 14.8906C55.7775 14.7448 55.5041 14.5194 55.2953 14.2145C55.0865 13.9096 54.9821 13.5268 54.9821 13.0661V5.53409ZM63.3841 15V7.36364H64.8109V8.60653H64.9054C65.0645 8.18561 65.3246 7.85748 65.6859 7.62216C66.0472 7.38352 66.4797 7.2642 66.9835 7.2642C67.4939 7.2642 67.9215 7.38352 68.2662 7.62216C68.6142 7.8608 68.871 8.18892 69.0368 8.60653H69.1163C69.2986 8.19886 69.5886 7.87405 69.9863 7.6321C70.3841 7.38684 70.858 7.2642 71.4082 7.2642C72.1009 7.2642 72.666 7.4813 73.1035 7.91548C73.5443 8.34967 73.7647 9.00426 73.7647 9.87926V15H72.2782V10.0185C72.2782 9.50142 72.1374 9.12689 71.8556 8.89489C71.5739 8.66288 71.2375 8.54688 70.8464 8.54688C70.3625 8.54688 69.9863 8.69602 69.7179 8.99432C69.4494 9.2893 69.3152 9.6688 69.3152 10.1328V15H67.8336V9.92401C67.8336 9.50971 67.7044 9.17661 67.4458 8.92472C67.1873 8.67282 66.8509 8.54688 66.4366 8.54688C66.1549 8.54688 65.8947 8.62145 65.6561 8.7706C65.4208 8.91643 65.2302 9.12026 65.0843 9.3821C64.9418 9.64394 64.8706 9.94721 64.8706 10.2919V15H63.3841ZM79.0483 15.1541C78.2959 15.1541 77.648 14.9934 77.1044 14.6719C76.5642 14.3471 76.1465 13.8913 75.8516 13.3047C75.5599 12.7147 75.4141 12.0237 75.4141 11.2315C75.4141 10.4493 75.5599 9.75994 75.8516 9.16335C76.1465 8.56676 76.5575 8.10109 77.0845 7.76633C77.6148 7.43158 78.2346 7.2642 78.9439 7.2642C79.3748 7.2642 79.7924 7.33546 80.1967 7.47798C80.6011 7.6205 80.964 7.84422 81.2855 8.14915C81.607 8.45407 81.8606 8.85014 82.0462 9.33736C82.2318 9.82126 82.3246 10.4096 82.3246 11.1023V11.6293H76.2543V10.5156H80.8679C80.8679 10.1245 80.7884 9.77817 80.6293 9.47656C80.4702 9.17164 80.2464 8.93134 79.9581 8.75568C79.6731 8.58002 79.3383 8.49219 78.9538 8.49219C78.5362 8.49219 78.1716 8.59493 77.8601 8.80043C77.5518 9.0026 77.3132 9.26776 77.1442 9.59588C76.9785 9.92069 76.8956 10.2737 76.8956 10.6548V11.5249C76.8956 12.0353 76.9851 12.4695 77.1641 12.8274C77.3464 13.1854 77.5999 13.4588 77.9247 13.6477C78.2495 13.8333 78.629 13.9261 79.0632 13.9261C79.3449 13.9261 79.6018 13.8864 79.8338 13.8068C80.0658 13.724 80.2663 13.6013 80.4354 13.4389C80.6044 13.2765 80.7337 13.076 80.8232 12.8374L82.2301 13.0909C82.1174 13.5052 81.9152 13.8681 81.6236 14.1797C81.3352 14.4879 80.9723 14.7282 80.5348 14.9006C80.1006 15.0696 79.6051 15.1541 79.0483 15.1541ZM87.5385 7.36364V8.55682H83.3674V7.36364H87.5385ZM84.486 5.53409H85.9725V12.7578C85.9725 13.0462 86.0156 13.2633 86.1017 13.4091C86.1879 13.5516 86.2989 13.6494 86.4348 13.7024C86.574 13.7521 86.7248 13.777 86.8873 13.777C87.0066 13.777 87.111 13.7687 87.2005 13.7521C87.29 13.7356 87.3596 13.7223 87.4093 13.7124L87.6777 14.9403C87.5916 14.9735 87.4689 15.0066 87.3098 15.0398C87.1507 15.0762 86.9519 15.0961 86.7132 15.0994C86.3221 15.1061 85.9576 15.0365 85.6195 14.8906C85.2814 14.7448 85.008 14.5194 84.7992 14.2145C84.5904 13.9096 84.486 13.5268 84.486 13.0661V5.53409ZM90.8335 10.4659V15H89.3469V4.81818H90.8136V8.60653H90.908C91.087 8.19555 91.3604 7.86908 91.7283 7.62713C92.0962 7.38518 92.5768 7.2642 93.1701 7.2642C93.6938 7.2642 94.1512 7.37192 94.5423 7.58736C94.9367 7.80279 95.2416 8.12429 95.457 8.55185C95.6758 8.97609 95.7852 9.50639 95.7852 10.1428V15H94.2987V10.3217C94.2987 9.7616 94.1545 9.32741 93.8661 9.01918C93.5778 8.70762 93.1767 8.55185 92.663 8.55185C92.3117 8.55185 91.9968 8.62642 91.7184 8.77557C91.4433 8.92472 91.2262 9.14347 91.0671 9.43182C90.9113 9.71686 90.8335 10.0616 90.8335 10.4659ZM100.985 15.1541C100.27 15.1541 99.6448 14.9901 99.1112 14.6619C98.5775 14.3338 98.1632 13.8748 97.8683 13.2848C97.5733 12.6948 97.4258 12.0054 97.4258 11.2166C97.4258 10.4245 97.5733 9.73177 97.8683 9.13849C98.1632 8.54522 98.5775 8.08452 99.1112 7.75639C99.6448 7.42827 100.27 7.2642 100.985 7.2642C101.701 7.2642 102.326 7.42827 102.86 7.75639C103.393 8.08452 103.808 8.54522 104.103 9.13849C104.398 9.73177 104.545 10.4245 104.545 11.2166C104.545 12.0054 104.398 12.6948 104.103 13.2848C103.808 13.8748 103.393 14.3338 102.86 14.6619C102.326 14.9901 101.701 15.1541 100.985 15.1541ZM100.99 13.9062C101.454 13.9062 101.839 13.7836 102.144 13.5384C102.449 13.2931 102.674 12.9666 102.82 12.5589C102.969 12.1513 103.044 11.7022 103.044 11.2116C103.044 10.7244 102.969 10.277 102.82 9.86932C102.674 9.45833 102.449 9.12855 102.144 8.87997C101.839 8.63139 101.454 8.5071 100.99 8.5071C100.523 8.5071 100.135 8.63139 99.8271 8.87997C99.5221 9.12855 99.2951 9.45833 99.146 9.86932C99.0001 10.277 98.9272 10.7244 98.9272 11.2116C98.9272 11.7022 99.0001 12.1513 99.146 12.5589C99.2951 12.9666 99.5221 13.2931 99.8271 13.5384C100.135 13.7836 100.523 13.9062 100.99 13.9062ZM109.063 15.1491C108.447 15.1491 107.896 14.9917 107.412 14.6768C106.932 14.3587 106.554 13.9062 106.279 13.3196C106.007 12.7296 105.871 12.022 105.871 11.1967C105.871 10.3714 106.009 9.66548 106.284 9.07884C106.562 8.49219 106.943 8.04309 107.427 7.73153C107.911 7.41998 108.46 7.2642 109.073 7.2642C109.547 7.2642 109.928 7.34375 110.216 7.50284C110.508 7.65862 110.733 7.84091 110.893 8.04972C111.055 8.25852 111.181 8.44247 111.27 8.60156H111.36V4.81818H112.846V15H111.395V13.8118H111.27C111.181 13.9742 111.052 14.1598 110.883 14.3686C110.717 14.5774 110.488 14.7597 110.197 14.9155C109.905 15.0713 109.527 15.1491 109.063 15.1491ZM109.391 13.8814C109.819 13.8814 110.18 13.7687 110.475 13.5433C110.773 13.3146 110.999 12.9981 111.151 12.5938C111.307 12.1894 111.385 11.7187 111.385 11.1818C111.385 10.6515 111.309 10.1875 111.156 9.78977C111.004 9.39205 110.78 9.08215 110.485 8.86009C110.19 8.63802 109.825 8.52699 109.391 8.52699C108.944 8.52699 108.571 8.64299 108.273 8.875C107.974 9.10701 107.749 9.42353 107.596 9.82457C107.447 10.2256 107.373 10.678 107.373 11.1818C107.373 11.6922 107.449 12.1513 107.601 12.5589C107.754 12.9666 107.979 13.2898 108.278 13.5284C108.579 13.7637 108.95 13.8814 109.391 13.8814Z" fill="#0F172A"/>
<path d="M42.8454 32.8182L45.8681 41.3892H45.9874L49.0102 32.8182H50.3028L46.5641 43H45.2914L41.5528 32.8182H42.8454ZM51.7296 43V35.3636H52.9029V43H51.7296ZM52.3262 34.0909C52.0975 34.0909 51.9003 34.013 51.7346 33.8572C51.5722 33.7015 51.491 33.5142 51.491 33.2955C51.491 33.0767 51.5722 32.8894 51.7346 32.7337C51.9003 32.5779 52.0975 32.5 52.3262 32.5C52.5549 32.5 52.7505 32.5779 52.9129 32.7337C53.0786 32.8894 53.1614 33.0767 53.1614 33.2955C53.1614 33.5142 53.0786 33.7015 52.9129 33.8572C52.7505 34.013 52.5549 34.0909 52.3262 34.0909ZM60.461 37.0739L59.407 37.3722C59.3407 37.1965 59.2429 37.0258 59.1137 36.8601C58.9877 36.6911 58.8154 36.5518 58.5966 36.4425C58.3779 36.3331 58.0978 36.2784 57.7564 36.2784C57.2891 36.2784 56.8997 36.3861 56.5881 36.6016C56.2799 36.8137 56.1258 37.0838 56.1258 37.4119C56.1258 37.7036 56.2318 37.9339 56.4439 38.103C56.6561 38.272 56.9875 38.4129 57.4383 38.5256L58.5718 38.804C59.2545 38.9697 59.7633 39.2232 60.0981 39.5646C60.4328 39.9027 60.6002 40.3385 60.6002 40.8722C60.6002 41.3097 60.4742 41.7008 60.2223 42.0455C59.9738 42.3902 59.6258 42.6619 59.1783 42.8608C58.7309 43.0597 58.2105 43.1591 57.6172 43.1591C56.8383 43.1591 56.1937 42.9901 55.6833 42.652C55.1729 42.3139 54.8497 41.8201 54.7138 41.1705L55.8275 40.892C55.9335 41.303 56.134 41.6113 56.429 41.8168C56.7273 42.0223 57.1168 42.125 57.5973 42.125C58.1442 42.125 58.5784 42.009 58.8999 41.777C59.2247 41.5417 59.3871 41.2599 59.3871 40.9318C59.3871 40.6667 59.2943 40.4446 59.1087 40.2656C58.9231 40.0833 58.6381 39.9474 58.2536 39.858L56.9809 39.5597C56.2815 39.3939 55.7678 39.1371 55.4397 38.7891C55.1149 38.4377 54.9525 37.9986 54.9525 37.4716C54.9525 37.0407 55.0734 36.6596 55.3154 36.3281C55.5607 35.9967 55.8937 35.7365 56.3147 35.5476C56.7389 35.3587 57.2195 35.2642 57.7564 35.2642C58.5121 35.2642 59.1054 35.4299 59.5363 35.7614C59.9705 36.0928 60.2787 36.5303 60.461 37.0739ZM64.6135 43.179C64.1296 43.179 63.6904 43.0878 63.296 42.9055C62.9016 42.7199 62.5884 42.4531 62.3564 42.1051C62.1244 41.7538 62.0084 41.3295 62.0084 40.8324C62.0084 40.3949 62.0946 40.0402 62.2669 39.7685C62.4393 39.4934 62.6696 39.2779 62.958 39.1222C63.2463 38.9664 63.5645 38.8504 63.9125 38.7741C64.2638 38.6946 64.6168 38.6316 64.9715 38.5852C65.4355 38.5256 65.8117 38.4808 66.1 38.451C66.3917 38.4179 66.6038 38.3632 66.7364 38.2869C66.8723 38.2107 66.9402 38.0781 66.9402 37.8892V37.8494C66.9402 37.3589 66.806 36.9777 66.5375 36.706C66.2724 36.4342 65.8697 36.2983 65.3294 36.2983C64.7693 36.2983 64.3301 36.4209 64.0119 36.6662C63.6938 36.9115 63.47 37.1733 63.3408 37.4517L62.2271 37.054C62.426 36.59 62.6912 36.2287 63.0226 35.9702C63.3573 35.7083 63.7219 35.526 64.1163 35.4233C64.5141 35.3172 64.9052 35.2642 65.2896 35.2642C65.5349 35.2642 65.8166 35.294 66.1348 35.3537C66.4563 35.41 66.7662 35.5277 67.0645 35.7067C67.3661 35.8857 67.6163 36.1558 67.8152 36.517C68.0141 36.8783 68.1135 37.3622 68.1135 37.9688V43H66.9402V41.9659H66.8805C66.801 42.1316 66.6684 42.3089 66.4828 42.4979C66.2972 42.6868 66.0503 42.8475 65.7421 42.9801C65.4338 43.1127 65.0576 43.179 64.6135 43.179ZM64.7925 42.125C65.2565 42.125 65.6476 42.0339 65.9658 41.8516C66.2873 41.6693 66.5292 41.4339 66.6916 41.1456C66.8573 40.8572 66.9402 40.554 66.9402 40.2358V39.1619C66.8905 39.2216 66.7811 39.2763 66.6121 39.326C66.4464 39.3724 66.2541 39.4138 66.0354 39.4503C65.8199 39.4834 65.6095 39.5133 65.404 39.5398C65.2018 39.563 65.0377 39.5829 64.9118 39.5994C64.6069 39.6392 64.3218 39.7038 64.0567 39.7933C63.7948 39.8795 63.5827 40.0104 63.4203 40.1861C63.2612 40.3584 63.1817 40.5937 63.1817 40.892C63.1817 41.2997 63.3325 41.608 63.6341 41.8168C63.939 42.0223 64.3252 42.125 64.7925 42.125ZM76.1414 38.5455L76.2209 36.358L74.3715 37.5312L73.8942 36.696L75.8431 35.6818L73.8942 34.6676L74.3715 33.8324L76.2209 35.0057L76.1414 32.8182H77.0959L77.0164 35.0057L78.8658 33.8324L79.3431 34.6676L77.3942 35.6818L79.3431 36.696L78.8658 37.5312L77.0164 36.358L77.0959 38.5455H76.1414ZM83.1414 38.5455L83.2209 36.358L81.3715 37.5312L80.8942 36.696L82.8431 35.6818L80.8942 34.6676L81.3715 33.8324L83.2209 35.0057L83.1414 32.8182H84.0959L84.0164 35.0057L85.8658 33.8324L86.3431 34.6676L84.3942 35.6818L86.3431 36.696L85.8658 37.5312L84.0164 36.358L84.0959 38.5455H83.1414ZM90.1414 38.5455L90.2209 36.358L88.3715 37.5312L87.8942 36.696L89.8431 35.6818L87.8942 34.6676L88.3715 33.8324L90.2209 35.0057L90.1414 32.8182H91.0959L91.0164 35.0057L92.8658 33.8324L93.3431 34.6676L91.3942 35.6818L93.3431 36.696L92.8658 37.5312L91.0164 36.358L91.0959 38.5455H90.1414ZM97.1414 38.5455L97.2209 36.358L95.3715 37.5312L94.8942 36.696L96.8431 35.6818L94.8942 34.6676L95.3715 33.8324L97.2209 35.0057L97.1414 32.8182H98.0959L98.0164 35.0057L99.8658 33.8324L100.343 34.6676L98.3942 35.6818L100.343 36.696L99.8658 37.5312L98.0164 36.358L98.0959 38.5455H97.1414ZM104.141 38.5455L104.221 36.358L102.371 37.5312L101.894 36.696L103.843 35.6818L101.894 34.6676L102.371 33.8324L104.221 35.0057L104.141 32.8182H105.096L105.016 35.0057L106.866 33.8324L107.343 34.6676L105.394 35.6818L107.343 36.696L106.866 37.5312L105.016 36.358L105.096 38.5455H104.141ZM111.141 38.5455L111.221 36.358L109.371 37.5312L108.894 36.696L110.843 35.6818L108.894 34.6676L109.371 33.8324L111.221 35.0057L111.141 32.8182H112.096L112.016 35.0057L113.866 33.8324L114.343 34.6676L112.394 35.6818L114.343 36.696L113.866 37.5312L112.016 36.358L112.096 38.5455H111.141ZM119.553 43.1392C119.136 43.1326 118.718 43.053 118.3 42.9006C117.883 42.7481 117.502 42.4912 117.157 42.13C116.812 41.7654 116.536 41.2732 116.327 40.6534C116.118 40.0303 116.014 39.2481 116.014 38.3068C116.014 37.4053 116.098 36.6065 116.267 35.9105C116.436 35.2112 116.681 34.6229 117.003 34.1456C117.324 33.665 117.712 33.3004 118.166 33.0518C118.624 32.8033 119.139 32.679 119.712 32.679C120.282 32.679 120.79 32.7933 121.234 33.022C121.681 33.2474 122.046 33.5623 122.327 33.9666C122.609 34.371 122.791 34.8366 122.874 35.3636H121.661C121.549 34.9062 121.33 34.5268 121.005 34.2251C120.68 33.9235 120.249 33.7727 119.712 33.7727C118.924 33.7727 118.302 34.1158 117.848 34.8018C117.397 35.4879 117.17 36.4508 117.167 37.6903H117.246C117.432 37.4086 117.653 37.1683 117.908 36.9695C118.166 36.7673 118.451 36.6115 118.763 36.5021C119.074 36.3928 119.404 36.3381 119.752 36.3381C120.336 36.3381 120.869 36.4839 121.353 36.7756C121.837 37.0639 122.225 37.4633 122.516 37.9737C122.808 38.4808 122.954 39.0625 122.954 39.7188C122.954 40.3485 122.813 40.9252 122.531 41.4489C122.25 41.9692 121.854 42.3835 121.343 42.6918C120.836 42.9967 120.239 43.1458 119.553 43.1392ZM119.553 42.0455C119.971 42.0455 120.345 41.9411 120.677 41.7322C121.012 41.5234 121.275 41.2434 121.467 40.892C121.663 40.5407 121.761 40.1496 121.761 39.7188C121.761 39.2978 121.666 38.915 121.477 38.5703C121.292 38.2223 121.035 37.9455 120.707 37.7401C120.382 37.5346 120.011 37.4318 119.593 37.4318C119.278 37.4318 118.985 37.4948 118.713 37.6207C118.441 37.7434 118.203 37.9124 117.997 38.1278C117.795 38.3433 117.636 38.5902 117.52 38.8686C117.404 39.1437 117.346 39.4337 117.346 39.7386C117.346 40.143 117.44 40.5208 117.629 40.8722C117.822 41.2235 118.083 41.5069 118.415 41.7223C118.75 41.9377 119.129 42.0455 119.553 42.0455ZM128.489 32.8182V43H127.256V34.1108H127.196L124.71 35.7614V34.5085L127.256 32.8182H128.489ZM131.417 43V42.1051L134.778 38.4261C135.172 37.9953 135.497 37.6207 135.752 37.3026C136.007 36.9811 136.196 36.6795 136.319 36.3977C136.445 36.1127 136.508 35.8144 136.508 35.5028C136.508 35.1449 136.422 34.835 136.249 34.5732C136.08 34.3113 135.848 34.1091 135.553 33.9666C135.258 33.8241 134.927 33.7528 134.559 33.7528C134.168 33.7528 133.826 33.834 133.535 33.9964C133.246 34.1555 133.023 34.3793 132.864 34.6676C132.708 34.956 132.63 35.294 132.63 35.6818H131.457C131.457 35.0852 131.594 34.5616 131.869 34.1108C132.144 33.66 132.519 33.3087 132.993 33.0568C133.47 32.8049 134.005 32.679 134.599 32.679C135.195 32.679 135.724 32.8049 136.185 33.0568C136.645 33.3087 137.006 33.6484 137.268 34.076C137.53 34.5036 137.661 34.9792 137.661 35.5028C137.661 35.8774 137.593 36.2436 137.457 36.6016C137.325 36.9562 137.093 37.3523 136.761 37.7898C136.433 38.224 135.977 38.7543 135.394 39.3807L133.107 41.8267V41.9062H137.84V43H131.417ZM143.473 32.8182V43H142.24V34.1108H142.18L139.694 35.7614V34.5085L142.24 32.8182H143.473Z" fill="#737373"/>
</svg>
