<svg width="32" height="32" viewBox="0 0 32 32" fill="none" xmlns="http://www.w3.org/2000/svg">
<path d="M29.7425 13.4013C29.7146 13.2604 29.6568 13.1273 29.5729 13.0108C29.489 12.8943 29.381 12.7973 29.2563 12.7263L25.5275 10.6013L25.5125 6.39877C25.512 6.25403 25.4802 6.11112 25.4191 5.97991C25.358 5.84869 25.2692 5.7323 25.1588 5.63877C23.8062 4.49464 22.2486 3.61785 20.5688 3.05502C20.4365 3.01024 20.2963 2.99367 20.1572 3.00637C20.0181 3.01908 19.8832 3.06077 19.7613 3.12877L16 5.23127L12.235 3.12502C12.1129 3.05664 11.9779 3.01463 11.8386 3.00171C11.6993 2.98879 11.5588 3.00525 11.4263 3.05002C9.74746 3.61646 8.19155 4.49665 6.84125 5.64377C6.73096 5.73716 6.64223 5.85336 6.58116 5.98434C6.52009 6.11533 6.48814 6.258 6.4875 6.40252L6.46875 10.6088L2.74 12.7338C2.61525 12.8048 2.50726 12.9018 2.42335 13.0183C2.33945 13.1348 2.28161 13.2679 2.25375 13.4088C1.9125 15.1236 1.9125 16.8889 2.25375 18.6038C2.28161 18.7446 2.33945 18.8778 2.42335 18.9942C2.50726 19.1107 2.61525 19.2077 2.74 19.2788L6.46875 21.4038L6.48375 25.6075C6.4842 25.7523 6.51607 25.8952 6.57714 26.0264C6.63822 26.1576 6.72705 26.274 6.8375 26.3675C8.19009 27.5116 9.7477 28.3884 11.4275 28.9513C11.5598 28.996 11.7 29.0126 11.8391 28.9999C11.9781 28.9872 12.113 28.9455 12.235 28.8775L16 26.7688L19.765 28.875C19.914 28.958 20.0819 29.0011 20.2525 29C20.3617 29 20.4702 28.9823 20.5738 28.9475C22.2521 28.3813 23.8079 27.502 25.1588 26.3563C25.269 26.2629 25.3578 26.1467 25.4188 26.0157C25.4799 25.8847 25.5119 25.742 25.5125 25.5975L25.5313 21.3913L29.26 19.2663C29.3848 19.1952 29.4927 19.0982 29.5767 18.9817C29.6606 18.8653 29.7184 18.7321 29.7463 18.5913C30.0856 16.8778 30.0843 15.1143 29.7425 13.4013ZM16 21C15.0111 21 14.0444 20.7068 13.2221 20.1574C12.3999 19.608 11.759 18.8271 11.3806 17.9134C11.0022 16.9998 10.9031 15.9945 11.0961 15.0246C11.289 14.0547 11.7652 13.1637 12.4645 12.4645C13.1637 11.7652 14.0546 11.289 15.0245 11.0961C15.9945 10.9032 16.9998 11.0022 17.9134 11.3806C18.827 11.7591 19.6079 12.3999 20.1574 13.2222C20.7068 14.0444 21 15.0111 21 16C21 17.3261 20.4732 18.5979 19.5355 19.5356C18.5979 20.4732 17.3261 21 16 21Z" fill="black"/>
</svg>
